<?xml version="1.0" encoding="UTF-8" standalone="no"?>
<!DOCTYPE svg PUBLIC "-//W3C//DTD SVG 1.1//EN"
"http://www.w3.org/Graphics/SVG/1.1/DTD/svg11.dtd">
<svg viewBox="0 0 909 1286" version="1.1" xmlns="http://www.w3.org/2000/svg" xmlns:xlink="http://www.w3.org/1999/xlink">
<defs>
<style type="text/css"><![CDATA[
.g0_1{
fill: #FFFFFF;
}
.g1_1{
fill: #D3D3D3;
}
.g2_1{
fill: #479099;
}
.g3_1{
fill: #B2B2B2;
}
]]></style>
</defs>
<path d="M0,0H908.8V1283.7H0V0Z" class="g0_1" />
<image preserveAspectRatio="none" x="39" y="34" width="140" height="141" xlink:href="img/1.png" />
<path fill-rule="evenodd" d="M108.9,33.5c39.2,0,70.9,31.8,70.9,70.9c0,39.1,-31.7,70.9,-70.9,70.9c-39.1,0,-70.8,-31.8,-70.8,-70.9c0,-39.1,31.7,-70.9,70.8,-70.9Zm0,.7c38.8,0,70.2,31.5,70.2,70.2c0,38.7,-31.4,70.2,-70.2,70.2c-38.7,0,-70.1,-31.5,-70.1,-70.2c0,-38.7,31.4,-70.2,70.1,-70.2Z" class="g1_1" />
<path d="M863.2,44.6l-1.8,-1.7l-5.3,4.6c.2,.2,.4,.3,.7,.3h12.9c.2,0,.5,-.1,.7,-.3l-5.3,-4.6l-1.9,1.7Z" class="g2_1" />
<path d="M870.4,37.3c-.2,-.1,-.5,-.2,-.7,-.2H856.8c-.3,0,-.5,.1,-.7,.3l7.1,6.1l7.2,-6.2Z" class="g2_1" />
<path d="M855.7,38v8.9l5.2,-4.4L855.7,38Z" class="g2_1" />
<path d="M865.6,42.5l5.1,4.4V38l-5.1,4.5Z" class="g2_1" />
<path d="M859.9,78.6h6.7c.4,0,.7,-.3,.7,-.7V64.2c0,-.4,-.3,-.7,-.7,-.7h-6.7c-.4,0,-.7,.3,-.7,.7V77.9c0,.4,.3,.7,.7,.7Zm3.3,-.5c-.5,0,-.9,-.5,-.9,-1c0,-.5,.4,-.9,.9,-.9c.5,0,1,.4,1,.9c0,.5,-.5,1,-1,1ZM860.1,65.3h6.3V75.7h-6.3V65.3Z" class="g2_1" />
<path d="M866.9,93.7c-.9,-1,-2.3,-1.5,-3.7,-1.5c-1.4,0,-2.7,.5,-3.7,1.5c-1.8,1.8,-2.1,5.3,-.5,7.4l4.2,6.1l4.2,-6.1c1.6,-2.1,1.4,-5.6,-.5,-7.4Zm-3.6,6.4c-1.5,0,-2.7,-1.2,-2.7,-2.7c0,-1.5,1.2,-2.7,2.7,-2.7c1.5,0,2.8,1.2,2.8,2.7c0,1.5,-1.3,2.7,-2.8,2.7Z" class="g2_1" />
<path d="M856.8,126.1h2.8v8.5h-2.8v-8.5Z" class="g2_1" />
<path d="M858.3,122c-1,0,-1.6,.7,-1.6,1.5c0,.8,.6,1.5,1.5,1.5c1,0,1.6,-.7,1.6,-1.5c0,-.8,-.6,-1.5,-1.5,-1.5Z" class="g2_1" />
<path d="M866.6,125.9c-1.5,0,-2.2,.8,-2.6,1.4v-1.2h-2.8c0,.8,0,8.5,0,8.5H864v-4.7c0,-.3,0,-.6,.1,-.7c.2,-.5,.7,-1.1,1.5,-1.1c1,0,1.4,.8,1.4,2v4.5h2.8v-4.9c0,-2.6,-1.4,-3.8,-3.2,-3.8Z" class="g2_1" />
<path d="M867,150.6c-1.2,-.7,-2.4,-1,-3.8,-1c-1.3,0,-2.6,.3,-3.7,1c-1.2,.7,-2.1,1.6,-2.8,2.8c-.6,1.1,-1,2.4,-1,3.7c0,1.7,.5,3.1,1.5,4.4c.9,1.3,2.1,2.2,3.7,2.7c.1,.1,.3,.1,.3,0c.1,-.1,.2,-.2,.2,-.3c0,0,0,-.2,0,-.5c0,-.4,0,-.7,0,-.9h-.3c-.1,0,-.3,.1,-.5,.1c-.2,0,-.5,-.1,-.7,-.1c-.2,-.1,-.4,-.2,-.6,-.3c-.2,-.2,-.4,-.4,-.5,-.6l-.1,-.2c0,-.2,-.1,-.3,-.3,-.5c-.1,-.2,-.3,-.3,-.4,-.4h-.1c0,-.1,-.1,-.1,-.1,-.2c0,0,-.1,-.1,-.1,-.1c0,0,0,-.1,.1,-.1c0,0,.1,-.1,.2,-.1l.2,.1c.2,0,.3,.1,.5,.2c.2,.1,.4,.3,.5,.5c.2,.3,.3,.5,.5,.6c.3,.2,.5,.2,.7,.2c.2,0,.4,0,.5,0c.2,0,.3,-.1,.5,-.2c0,-.4,.2,-.7,.5,-1c-.4,0,-.7,-.1,-1,-.1c-.3,-.1,-.6,-.2,-1,-.4c-.3,-.2,-.5,-.4,-.7,-.7c-.3,-.2,-.4,-.6,-.6,-1c-.1,-.4,-.2,-.9,-.2,-1.5c0,-.8,.3,-1.4,.8,-2c-.2,-.6,-.2,-1.2,.1,-2c.2,0,.4,0,.8,.2c.4,.1,.7,.2,.8,.3c.2,.1,.3,.2,.5,.3c.6,-.2,1.2,-.3,1.8,-.3c.7,0,1.3,.1,1.9,.3l.4,-.2c.2,-.2,.5,-.3,.9,-.5c.3,-.1,.6,-.1,.8,-.1c.3,.8,.3,1.4,0,2c.6,.6,.8,1.2,.8,2c0,.6,0,1.1,-.2,1.5c-.1,.4,-.3,.8,-.5,1c-.2,.3,-.5,.5,-.8,.7c-.3,.2,-.6,.3,-.9,.4c-.3,0,-.6,.1,-1,.1c.3,.3,.5,.8,.5,1.4v2.1c0,.1,0,.2,.1,.3c.1,.1,.2,.1,.4,0c1.5,-.5,2.7,-1.4,3.7,-2.7c1,-1.3,1.4,-2.7,1.4,-4.4c0,-1.3,-.3,-2.6,-1,-3.7c-.6,-1.2,-1.6,-2.1,-2.7,-2.8Z" class="g2_1" />
<path d="M0,250.7H436.1v1.4H0v-1.4Z" class="g2_1" />
<path d="M25.8,268.8h1.4V514.6H25.8V268.8Z" class="g2_1" />
<path fill-rule="evenodd" d="M26.5,266.7h.4c3.6,0,6.6,3,6.6,6.7v.3c0,3.7,-3,6.7,-6.6,6.7h-.4c-3.6,0,-6.6,-3,-6.6,-6.7v-.3c0,-3.7,3,-6.7,6.6,-6.7Z" class="g0_1" />
<path fill-rule="evenodd" d="M26.5,266h.4c4,0,7.3,3.3,7.3,7.4v.3c0,4.1,-3.3,7.4,-7.3,7.4h-.4c-4,0,-7.3,-3.3,-7.3,-7.4v-.3c0,-4.1,3.3,-7.4,7.3,-7.4Zm0,2.8h.4c2.5,0,4.5,2.1,4.5,4.6v.3c0,2.5,-2,4.6,-4.5,4.6h-.4C24,278.3,22,276.2,22,273.7v-.3c0,-2.5,2,-4.6,4.5,-4.6Z" class="g2_1" />
<path d="M62.1,350.7h6v1.4h-6v-1.4Z" class="g2_1" />
<path d="M62.1,390.1h6v1.5h-6v-1.5Z" class="g2_1" />
<path d="M62.1,412.8h6v1.5h-6v-1.5Z" class="g2_1" />
<path d="M62.1,452.3h6v1.4h-6v-1.4Z" class="g2_1" />
<path d="M53.1,334.5H63.5v1.4H53.1v-1.4Z" class="g2_1" />
<path d="M53.1,334.5h1.4V458.1H53.1V334.5Z" class="g2_1" />
<path d="M424.2,334.5h10.5v1.4H424.2v-1.4Z" class="g2_1" />
<path d="M433.3,334.5h1.4V458.1h-1.4V334.5Z" class="g2_1" />
<path d="M53.1,483.2H63.5v1.4H53.1v-1.4Z" class="g2_1" />
<path d="M53.1,361h1.4V484.6H53.1V361Z" class="g2_1" />
<path d="M424.2,483.2h10.5v1.4H424.2v-1.4Z" class="g2_1" />
<path d="M433.3,361h1.4V484.6h-1.4V361Z" class="g2_1" />
<path fill-rule="evenodd" d="M26.5,512.5h.4c3.6,0,6.6,3,6.6,6.7v.3c0,3.7,-3,6.6,-6.6,6.6h-.4c-3.6,0,-6.6,-2.9,-6.6,-6.6v-.3c0,-3.7,3,-6.7,6.6,-6.7Z" class="g0_1" />
<path fill-rule="evenodd" d="M26.5,511.8h.4c4,0,7.3,3.3,7.3,7.4v.3c0,4.1,-3.3,7.3,-7.3,7.3h-.4c-4,0,-7.3,-3.2,-7.3,-7.3v-.3c0,-4.1,3.3,-7.4,7.3,-7.4Zm0,2.8h.4c2.5,0,4.5,2.1,4.5,4.6v.3c0,2.5,-2,4.5,-4.5,4.5h-.4C24,524,22,522,22,519.5v-.3c0,-2.5,2,-4.6,4.5,-4.6Z" class="g2_1" />
<path d="M62.1,596.5h6v1.4h-6v-1.4Z" class="g2_1" />
<path d="M62.1,635.9h6v1.5h-6v-1.5Z" class="g2_1" />
<path d="M62.1,675.4h6v1.4h-6v-1.4Z" class="g2_1" />
<path d="M62.1,731.6h6V733h-6v-1.4Z" class="g2_1" />
<path d="M53.1,580.2H63.5v1.4H53.1v-1.4Z" class="g2_1" />
<path d="M53.1,580.2h1.4V730.7H53.1V580.2Z" class="g2_1" />
<path d="M424.2,580.2h10.5v1.4H424.2v-1.4Z" class="g2_1" />
<path d="M433.3,580.2h1.4V730.7h-1.4V580.2Z" class="g2_1" />
<path d="M53.1,762.5H63.5v1.4H53.1v-1.4Z" class="g2_1" />
<path d="M53.1,613.4h1.4V763.9H53.1V613.4Z" class="g2_1" />
<path d="M424.2,762.5h10.5v1.4H424.2v-1.4Z" class="g2_1" />
<path d="M433.3,613.4h1.4V763.9h-1.4V613.4Z" class="g2_1" />
<path d="M0,834.4H436.1v1.4H0v-1.4Z" class="g2_1" />
<path d="M25.8,852.6h1.4V1047H25.8V852.6Z" class="g2_1" />
<path fill-rule="evenodd" d="M26.5,850.5h.4c3.6,0,6.6,3,6.6,6.6v.4c0,3.6,-3,6.6,-6.6,6.6h-.4c-3.6,0,-6.6,-3,-6.6,-6.6v-.4c0,-3.6,3,-6.6,6.6,-6.6Z" class="g0_1" />
<path fill-rule="evenodd" d="M26.5,849.8h.4c4,0,7.3,3.3,7.3,7.3v.4c0,4,-3.3,7.3,-7.3,7.3h-.4c-4,0,-7.3,-3.3,-7.3,-7.3v-.4c0,-4,3.3,-7.3,7.3,-7.3Zm0,2.8h.4c2.5,0,4.5,2,4.5,4.5v.4c0,2.5,-2,4.5,-4.5,4.5h-.4C24,862,22,860,22,857.5v-.4c0,-2.5,2,-4.5,4.5,-4.5Z" class="g2_1" />
<path d="M62.1,934.4h6v1.5h-6v-1.5Z" class="g2_1" />
<path d="M53.1,918.2H63.5v1.4H53.1v-1.4Z" class="g2_1" />
<path d="M53.1,918.2h1.4v82.4H53.1V918.2Z" class="g2_1" />
<path d="M424.2,918.2h10.5v1.4H424.2v-1.4Z" class="g2_1" />
<path d="M433.3,918.2h1.4v82.4h-1.4V918.2Z" class="g2_1" />
<path d="M53.1,1015.6H63.5v1.4H53.1v-1.4Z" class="g2_1" />
<path d="M53.1,934.6h1.4V1017H53.1V934.6Z" class="g2_1" />
<path d="M424.2,1015.6h10.5v1.4H424.2v-1.4Z" class="g2_1" />
<path d="M433.3,934.6h1.4V1017h-1.4V934.6Z" class="g2_1" />
<path fill-rule="evenodd" d="M26.5,1045h.4c3.6,0,6.6,2.9,6.6,6.6v.3c0,3.7,-3,6.7,-6.6,6.7h-.4c-3.6,0,-6.6,-3,-6.6,-6.7v-.3c0,-3.7,3,-6.6,6.6,-6.6Z" class="g0_1" />
<path fill-rule="evenodd" d="M26.5,1044.3h.4c4,0,7.3,3.2,7.3,7.3v.3c0,4.1,-3.3,7.4,-7.3,7.4h-.4c-4,0,-7.3,-3.3,-7.3,-7.4v-.3c0,-4.1,3.3,-7.3,7.3,-7.3Zm0,2.7h.4c2.5,0,4.5,2.1,4.5,4.6v.3c0,2.5,-2,4.6,-4.5,4.6h-.4c-2.5,0,-4.5,-2.1,-4.5,-4.6v-.3c0,-2.5,2,-4.6,4.5,-4.6Z" class="g2_1" />
<path d="M62.1,1128.9h6v1.4h-6v-1.4Z" class="g2_1" />
<path d="M53.1,1112.7H63.5v1.4H53.1v-1.4Z" class="g2_1" />
<path d="M53.1,1112.7h1.4v96H53.1v-96Z" class="g2_1" />
<path d="M424.2,1112.7h10.5v1.4H424.2v-1.4Z" class="g2_1" />
<path d="M433.3,1112.7h1.4v96h-1.4v-96Z" class="g2_1" />
<path d="M53.1,1226.8H63.5v1.4H53.1v-1.4Z" class="g2_1" />
<path d="M53.1,1132.2h1.4v96H53.1v-96Z" class="g2_1" />
<path d="M424.2,1226.8h10.5v1.4H424.2v-1.4Z" class="g2_1" />
<path d="M433.3,1132.2h1.4v96h-1.4v-96Z" class="g2_1" />
<path d="M472.7,250.7H908.8v1.4H472.7v-1.4Z" class="g2_1" />
<path fill-rule="evenodd" d="M504.5,267.1h44c2.5,0,4.5,2,4.5,4.5v16.8c0,2.5,-2,4.5,-4.5,4.5h-44c-2.5,0,-4.5,-2,-4.5,-4.5V271.6c0,-2.5,2,-4.5,4.5,-4.5Z" class="g2_1" />
<path fill-rule="evenodd" d="M564.9,267.1H685c2.5,0,4.5,2,4.5,4.5v16.8c0,2.5,-2,4.5,-4.5,4.5H564.9c-2.5,0,-4.5,-2,-4.5,-4.5V271.6c0,-2.5,2,-4.5,4.5,-4.5Z" class="g2_1" />
<path fill-rule="evenodd" d="M701.4,267.1h58.3c2.5,0,4.5,2,4.5,4.5v16.8c0,2.5,-2,4.5,-4.5,4.5H701.4c-2.5,0,-4.5,-2,-4.5,-4.5V271.6c0,-2.5,2,-4.5,4.5,-4.5Z" class="g2_1" />
<path fill-rule="evenodd" d="M504.5,304.8H634.7c2.5,0,4.6,2,4.6,4.5v16.8c0,2.5,-2.1,4.5,-4.6,4.5H504.5c-2.5,0,-4.5,-2,-4.5,-4.5V309.3c0,-2.5,2,-4.5,4.5,-4.5Z" class="g2_1" />
<path fill-rule="evenodd" d="M651.1,304.8h59.7c2.5,0,4.6,2,4.6,4.5v16.8c0,2.5,-2.1,4.5,-4.6,4.5H651.1c-2.5,0,-4.5,-2,-4.5,-4.5V309.3c0,-2.5,2,-4.5,4.5,-4.5Z" class="g2_1" />
<path fill-rule="evenodd" d="M727.2,304.8h64.3c2.5,0,4.5,2,4.5,4.5v16.8c0,2.5,-2,4.5,-4.5,4.5H727.2c-2.5,0,-4.5,-2,-4.5,-4.5V309.3c0,-2.5,2,-4.5,4.5,-4.5Z" class="g2_1" />
<path fill-rule="evenodd" d="M504.5,342.5h55.9c2.5,0,4.5,2,4.5,4.5v16.8c0,2.5,-2,4.5,-4.5,4.5H504.5c-2.5,0,-4.5,-2,-4.5,-4.5V347c0,-2.5,2,-4.5,4.5,-4.5Z" class="g2_1" />
<path fill-rule="evenodd" d="M576.8,342.5H697.9c2.5,0,4.6,2,4.6,4.5v16.8c0,2.5,-2.1,4.5,-4.6,4.5H576.8c-2.5,0,-4.6,-2,-4.6,-4.5V347c0,-2.5,2.1,-4.5,4.6,-4.5Z" class="g2_1" />
<path d="M472.7,436.1H908.8v1.4H472.7v-1.4Z" class="g2_1" />
<path d="M500,476h5.9v1.5H500V476Z" class="g2_1" />
<path d="M500,561.6h5.9V563H500v-1.4Z" class="g2_1" />
<path d="M500,647.1h5.9v1.4H500v-1.4Z" class="g2_1" />
<path d="M472.7,754.8H908.8v1.4H472.7v-1.4Z" class="g2_1" />
<path d="M472.7,879.8H908.8v1.4H472.7v-1.4Z" class="g2_1" />
<path fill-rule="evenodd" d="M649,894.8h.4c4,0,7.3,3.3,7.3,7.4v.3c0,4.1,-3.3,7.3,-7.3,7.3H649c-4,0,-7.3,-3.2,-7.3,-7.3v-.3c0,-4.1,3.3,-7.4,7.3,-7.4Z" class="g2_1" />
<path fill-rule="evenodd" d="M677.7,894.8h.3c4.1,0,7.3,3.3,7.3,7.4v.3c0,4.1,-3.2,7.3,-7.3,7.3h-.3c-4.1,0,-7.4,-3.2,-7.4,-7.3v-.3c0,-4.1,3.3,-7.4,7.4,-7.4Z" class="g2_1" />
<path fill-rule="evenodd" d="M706.3,894.8h.3c4.1,0,7.4,3.3,7.4,7.4v.3c0,4.1,-3.3,7.3,-7.4,7.3h-.3c-4.1,0,-7.3,-3.2,-7.3,-7.3v-.3c0,-4.1,3.2,-7.4,7.3,-7.4Z" class="g2_1" />
<path fill-rule="evenodd" d="M734.9,894.8h.4c4,0,7.3,3.3,7.3,7.4v.3c0,4.1,-3.3,7.3,-7.3,7.3h-.4c-4,0,-7.3,-3.2,-7.3,-7.3v-.3c0,-4.1,3.3,-7.4,7.3,-7.4Z" class="g2_1" />
<path fill-rule="evenodd" d="M763.6,894.8h.3c4,0,7.3,3.3,7.3,7.4v.3c0,4.1,-3.3,7.3,-7.3,7.3h-.3c-4.1,0,-7.4,-3.2,-7.4,-7.3v-.3c0,-4.1,3.3,-7.4,7.4,-7.4Z" class="g2_1" />
<path fill-rule="evenodd" d="M649,926.6h.4c4,0,7.3,3.3,7.3,7.3v.4c0,4,-3.3,7.3,-7.3,7.3H649c-4,0,-7.3,-3.3,-7.3,-7.3v-.4c0,-4,3.3,-7.3,7.3,-7.3Z" class="g2_1" />
<path fill-rule="evenodd" d="M677.7,926.6h.3c4.1,0,7.3,3.3,7.3,7.3v.4c0,4,-3.2,7.3,-7.3,7.3h-.3c-4.1,0,-7.4,-3.3,-7.4,-7.3v-.4c0,-4,3.3,-7.3,7.4,-7.3Z" class="g2_1" />
<path fill-rule="evenodd" d="M706.3,926.6h.3c4.1,0,7.4,3.3,7.4,7.3v.4c0,4,-3.3,7.3,-7.4,7.3h-.3c-4.1,0,-7.3,-3.3,-7.3,-7.3v-.4c0,-4,3.2,-7.3,7.3,-7.3Z" class="g2_1" />
<path fill-rule="evenodd" d="M734.9,926.6h.4c4,0,7.3,3.3,7.3,7.3v.4c0,4,-3.3,7.3,-7.3,7.3h-.4c-4,0,-7.3,-3.3,-7.3,-7.3v-.4c0,-4,3.3,-7.3,7.3,-7.3Z" class="g2_1" />
<path fill-rule="evenodd" d="M763.6,926.6h.3c4,0,7.3,3.3,7.3,7.3v.4c0,4,-3.3,7.3,-7.3,7.3h-.3c-4.1,0,-7.4,-3.3,-7.4,-7.3v-.4c0,-4,3.3,-7.3,7.4,-7.3Z" class="g2_1" />
<path fill-rule="evenodd" d="M649,958.4h.4c4,0,7.3,3.3,7.3,7.3v.3c0,4.1,-3.3,7.4,-7.3,7.4H649c-4,0,-7.3,-3.3,-7.3,-7.4v-.3c0,-4,3.3,-7.3,7.3,-7.3Z" class="g2_1" />
<path fill-rule="evenodd" d="M677.7,958.4h.3c4.1,0,7.3,3.3,7.3,7.3v.3c0,4.1,-3.2,7.4,-7.3,7.4h-.3c-4.1,0,-7.4,-3.3,-7.4,-7.4v-.3c0,-4,3.3,-7.3,7.4,-7.3Z" class="g2_1" />
<path fill-rule="evenodd" d="M706.3,958.4h.3c4.1,0,7.4,3.3,7.4,7.3v.3c0,4.1,-3.3,7.4,-7.4,7.4h-.3c-4.1,0,-7.3,-3.3,-7.3,-7.4v-.3c0,-4,3.2,-7.3,7.3,-7.3Z" class="g2_1" />
<path fill-rule="evenodd" d="M734.9,958.4h.4c4,0,7.3,3.3,7.3,7.3v.3c0,4.1,-3.3,7.4,-7.3,7.4h-.4c-4,0,-7.3,-3.3,-7.3,-7.4v-.3c0,-4,3.3,-7.3,7.3,-7.3Z" class="g2_1" />
<path fill-rule="evenodd" d="M763.6,959.1h.3c3.7,0,6.6,2.9,6.6,6.6v.3c0,3.7,-2.9,6.7,-6.6,6.7h-.3c-3.7,0,-6.7,-3,-6.7,-6.7v-.3c0,-3.7,3,-6.6,6.7,-6.6Z" class="g0_1" />
<path fill-rule="evenodd" d="M763.6,958.4h.3c4,0,7.3,3.3,7.3,7.3v.3c0,4.1,-3.3,7.4,-7.3,7.4h-.3c-4.1,0,-7.4,-3.3,-7.4,-7.4v-.3c0,-4,3.3,-7.3,7.4,-7.3Zm0,1.4h.3c3.3,0,5.9,2.6,5.9,5.9v.3c0,3.3,-2.6,6,-5.9,6h-.3c-3.3,0,-6,-2.7,-6,-6v-.3c0,-3.3,2.7,-5.9,6,-5.9Z" class="g2_1" />
<path fill-rule="evenodd" d="M649,990.1h.4c4,0,7.3,3.3,7.3,7.4v.3c0,4.1,-3.3,7.4,-7.3,7.4H649c-4,0,-7.3,-3.3,-7.3,-7.4v-.3c0,-4.1,3.3,-7.4,7.3,-7.4Z" class="g2_1" />
<path fill-rule="evenodd" d="M677.7,990.8h.3c3.7,0,6.6,3,6.6,6.7v.3c0,3.7,-2.9,6.7,-6.6,6.7h-.3c-3.7,0,-6.7,-3,-6.7,-6.7v-.3c0,-3.7,3,-6.7,6.7,-6.7Z" class="g0_1" />
<path fill-rule="evenodd" d="M677.7,990.1h.3c4.1,0,7.3,3.3,7.3,7.4v.3c0,4.1,-3.2,7.4,-7.3,7.4h-.3c-4.1,0,-7.4,-3.3,-7.4,-7.4v-.3c0,-4.1,3.3,-7.4,7.4,-7.4Zm0,1.4h.3c3.3,0,5.9,2.7,5.9,6v.3c0,3.3,-2.6,6,-5.9,6h-.3c-3.3,0,-6,-2.7,-6,-6v-.3c0,-3.3,2.7,-6,6,-6Z" class="g2_1" />
<path fill-rule="evenodd" d="M706.3,990.8h.3c3.7,0,6.7,3,6.7,6.7v.3c0,3.7,-3,6.7,-6.7,6.7h-.3c-3.7,0,-6.6,-3,-6.6,-6.7v-.3c0,-3.7,2.9,-6.7,6.6,-6.7Z" class="g0_1" />
<path fill-rule="evenodd" d="M706.3,990.1h.3c4.1,0,7.4,3.3,7.4,7.4v.3c0,4.1,-3.3,7.4,-7.4,7.4h-.3c-4.1,0,-7.3,-3.3,-7.3,-7.4v-.3c0,-4.1,3.2,-7.4,7.3,-7.4Zm0,1.4h.3c3.3,0,6,2.7,6,6v.3c0,3.3,-2.7,6,-6,6h-.3c-3.3,0,-5.9,-2.7,-5.9,-6v-.3c0,-3.3,2.6,-6,5.9,-6Z" class="g2_1" />
<path fill-rule="evenodd" d="M734.9,990.8h.4c3.6,0,6.6,3,6.6,6.7v.3c0,3.7,-3,6.7,-6.6,6.7h-.4c-3.6,0,-6.6,-3,-6.6,-6.7v-.3c0,-3.7,3,-6.7,6.6,-6.7Z" class="g0_1" />
<path fill-rule="evenodd" d="M734.9,990.1h.4c4,0,7.3,3.3,7.3,7.4v.3c0,4.1,-3.3,7.4,-7.3,7.4h-.4c-4,0,-7.3,-3.3,-7.3,-7.4v-.3c0,-4.1,3.3,-7.4,7.3,-7.4Zm0,1.4h.4c3.2,0,5.9,2.7,5.9,6v.3c0,3.3,-2.7,6,-5.9,6h-.4c-3.3,0,-5.9,-2.7,-5.9,-6v-.3c0,-3.3,2.6,-6,5.9,-6Z" class="g2_1" />
<path fill-rule="evenodd" d="M763.6,990.8h.3c3.7,0,6.6,3,6.6,6.7v.3c0,3.7,-2.9,6.7,-6.6,6.7h-.3c-3.7,0,-6.7,-3,-6.7,-6.7v-.3c0,-3.7,3,-6.7,6.7,-6.7Z" class="g0_1" />
<path fill-rule="evenodd" d="M763.6,990.1h.3c4,0,7.3,3.3,7.3,7.4v.3c0,4.1,-3.3,7.4,-7.3,7.4h-.3c-4.1,0,-7.4,-3.3,-7.4,-7.4v-.3c0,-4.1,3.3,-7.4,7.4,-7.4Zm0,1.4h.3c3.3,0,5.9,2.7,5.9,6v.3c0,3.3,-2.6,6,-5.9,6h-.3c-3.3,0,-6,-2.7,-6,-6v-.3c0,-3.3,2.7,-6,6,-6Z" class="g2_1" />
<path d="M472.7,1062.7H908.8v1.4H472.7v-1.4Z" class="g2_1" />
<path fill-rule="evenodd" d="M504.5,1079.2h65.6c2.5,0,4.6,2,4.6,4.5v19.6c0,2.5,-2.1,4.5,-4.6,4.5H504.5c-2.5,0,-4.5,-2,-4.5,-4.5v-19.6c0,-2.5,2,-4.5,4.5,-4.5Zm0,1.4h65.6c1.8,0,3.2,1.4,3.2,3.1v19.6c0,1.7,-1.4,3.1,-3.2,3.1H504.5c-1.7,0,-3.1,-1.4,-3.1,-3.1v-19.6c0,-1.7,1.4,-3.1,3.1,-3.1Z" class="g3_1" />
<path fill-rule="evenodd" d="M586.5,1079.2H771.9c2.5,0,4.6,2,4.6,4.5v19.6c0,2.5,-2.1,4.5,-4.6,4.5H586.5c-2.5,0,-4.5,-2,-4.5,-4.5v-19.6c0,-2.5,2,-4.5,4.5,-4.5Zm0,1.4H771.9c1.8,0,3.2,1.4,3.2,3.1v19.6c0,1.7,-1.4,3.1,-3.2,3.1H586.5c-1.7,0,-3.1,-1.4,-3.1,-3.1v-19.6c0,-1.7,1.4,-3.1,3.1,-3.1Z" class="g3_1" />
<path fill-rule="evenodd" d="M504.5,1115.1h91.1c2.5,0,4.6,2.1,4.6,4.6v19.5c0,2.5,-2.1,4.6,-4.6,4.6H504.5c-2.5,0,-4.5,-2.1,-4.5,-4.6v-19.5c0,-2.5,2,-4.6,4.5,-4.6Zm0,1.4h91.1c1.8,0,3.2,1.4,3.2,3.2v19.5c0,1.8,-1.4,3.2,-3.2,3.2H504.5c-1.7,0,-3.1,-1.4,-3.1,-3.2v-19.5c0,-1.8,1.4,-3.2,3.1,-3.2Z" class="g3_1" />
</svg>