<?xml version="1.0" encoding="UTF-8" standalone="no"?>
<!DOCTYPE svg PUBLIC "-//W3C//DTD SVG 1.1//EN"
"http://www.w3.org/Graphics/SVG/1.1/DTD/svg11.dtd">
<svg viewBox="0 0 909 1286" version="1.1" xmlns="http://www.w3.org/2000/svg" xmlns:xlink="http://www.w3.org/1999/xlink">
<defs>
<clipPath id="c0"><path d="M0,1283.8V0H908.8V1283.8Z"/></clipPath>
<clipPath id="c1"><path d="M38.1,186.1V33.5H190.6V186.1Z"/></clipPath>
<clipPath id="c2"><path d="M114.2,185.4C72.5,185.4,38.8,151.6,38.8,110v-.4C38.8,68,72.5,34.2,114.2,34.2h.3c41.6,0,75.4,33.8,75.4,75.4v.4c0,41.6,-33.8,75.4,-75.4,75.4Z"/></clipPath>
<style type="text/css"><![CDATA[
.g0{
fill: #FFF;
}
.g1{
fill: #2CBFAA;
}
.g2{
fill: #255958;
}
.g3{
fill: #D3D3D3;
}
]]></style>
</defs>
<path clip-path="url(#c0)" d="M0,0H908.8V1283.8H0V0Z" class="g0"/>
<path d="M859.4,46c-.4,0,-.7,-.1,-1,-.4l-8,-7.9V48.8c0,.7,.6,1.3,1.3,1.4l4.5,-4.6c.2,-.2,.5,-.1,.7,0c.2,.2,.2,.5,0,.7L853,50.2h12.8l-3.9,-3.9c-.2,-.2,-.2,-.5,0,-.7c.2,-.1,.5,-.2,.7,0l4.5,4.6c.7,-.1,1.3,-.7,1.3,-1.4V37.7l-8,7.9c-.3,.3,-.6,.4,-1,.4Z" class="g1"/>
<path d="M859.7,45l8.4,-8.4c-.3,-.3,-.7,-.5,-1.1,-.5H851.8c-.4,0,-.8,.2,-1.1,.5l8.4,8.4c.2,.1,.5,.1,.6,0Z" class="g1"/>
<path d="M859.9,85.1c0,.3,-.2,.5,-.5,.5c-.3,0,-.5,-.2,-.5,-.5c0,-.3,.2,-.5,.5,-.5c.3,0,.5,.2,.5,.5Z" class="g1"/>
<path d="M863.7,70.4h-8.5c-.8,0,-1.5,.7,-1.5,1.5V87c0,.8,.7,1.4,1.5,1.4h8.5c.7,0,1.4,-.6,1.4,-1.4V71.9c0,-.8,-.7,-1.5,-1.4,-1.5Zm-4.3,16.1c-.8,0,-1.4,-.6,-1.4,-1.4c0,-.8,.6,-1.4,1.4,-1.4c.8,0,1.4,.6,1.4,1.4c0,.8,-.6,1.4,-1.4,1.4Zm1.4,-12.3H858c-.3,0,-.5,-.2,-.5,-.4c0,-.3,.2,-.5,.5,-.5h2.8c.2,0,.4,.1,.4,.2c.1,.2,.1,.3,0,.5c0,.1,-.2,.2,-.4,.2Z" class="g1"/>
<path d="M859.5,110.1c-.8,0,-1.5,.7,-1.5,1.5c0,.9,.7,1.6,1.5,1.6c.9,0,1.6,-.7,1.6,-1.6c0,-.8,-.7,-1.5,-1.6,-1.5Z" class="g1"/>
<path d="M859.5,106.8c-2.6,0,-4.7,2.1,-4.7,4.7c0,4,1.5,9.9,4,12.7c.2,.2,.5,.3,.7,.3c.3,0,.6,-.1,.7,-.3c2.5,-2.8,4.1,-8.7,4.1,-12.7c-.1,-2.6,-2.2,-4.7,-4.8,-4.7Zm0,7.3c-1.4,0,-2.5,-1.1,-2.5,-2.5c0,-1.4,1.1,-2.5,2.5,-2.5c1.4,0,2.5,1.1,2.5,2.5c0,1.4,-1.1,2.5,-2.5,2.5Z" class="g1"/>
<path d="M866.3,144H852.6c-.4,0,-.7,.1,-.9,.4c-.2,.2,-.3,.5,-.3,.8v13.7c0,.3,.1,.6,.3,.8c.2,.3,.5,.4,.9,.4h13.7c.3,0,.6,-.1,.8,-.4c.2,-.2,.3,-.5,.3,-.8V145.2c0,-.3,-.1,-.6,-.3,-.8c-.2,-.3,-.5,-.4,-.8,-.4Zm-10.2,13.7h-2.4v-7.6h2.4v7.6ZM854.9,149c-.7,0,-1.4,-.6,-1.4,-1.4c0,-.8,.7,-1.4,1.4,-1.4c.8,0,1.4,.6,1.4,1.4c0,.8,-.6,1.4,-1.4,1.4Zm10.2,8.7h-2.4V154c0,-.9,0,-2,-1.3,-2c-1.2,0,-1.4,.9,-1.4,1.9v3.8h-2.4v-7.6h2.3v1h.1c.4,-.8,1.3,-1.3,2.2,-1.2c2.4,0,2.9,1.6,2.9,3.6v4.2Z" class="g1"/>
<path fill-rule="evenodd" d="M859.4,179.9c-4.2,-.1,-7.7,3,-8.4,7.1c-.7,4.1,1.8,8.1,5.7,9.4c.4,.1,.6,-.1,.6,-.4c0,-.2,0,-.7,0,-1.4c-2.4,.5,-2.9,-1.2,-2.9,-1.2c-.1,-.5,-.5,-.9,-.9,-1.2c-.8,-.5,0,-.5,0,-.5c.6,0,1.1,.4,1.3,.9c.3,.4,.7,.7,1.1,.8c.5,.2,1,.1,1.4,-.1c.1,-.5,.2,-.9,.6,-1.2c-1.9,-.2,-3.9,-.9,-3.9,-4.2c0,-.8,.3,-1.6,.9,-2.3c-.3,-.7,-.3,-1.5,0,-2.2c0,0,.8,-.2,2.4,.9c1.4,-.4,2.8,-.4,4.2,0c1.7,-1.1,2.4,-.9,2.4,-.9c.3,.7,.3,1.5,.1,2.2c.5,.7,.9,1.5,.8,2.3c0,3.3,-2,4,-3.8,4.2c.4,.4,.6,1,.5,1.6c0,1.1,0,2.1,0,2.3c0,.3,.2,.5,.6,.4c4,-1.3,6.4,-5.3,5.7,-9.4c-.6,-4.1,-4.2,-7.2,-8.4,-7.1Z" class="g1"/>
<path d="M0,303.4H427v1.4H0v-1.4Z" class="g1"/>
<path d="M25.8,319.8h1.4V497.2H25.8V319.8Z" class="g1"/>
<path fill-rule="evenodd" d="M26.5,317.7h.4c3.6,0,6.6,3,6.6,6.7v.3c0,3.7,-3,6.6,-6.6,6.6h-.4c-3.6,0,-6.6,-2.9,-6.6,-6.6v-.3c0,-3.7,3,-6.7,6.6,-6.7Z" class="g0"/>
<path fill-rule="evenodd" d="M26.5,317h.4c4,0,7.3,3.3,7.3,7.4v.3c0,4,-3.3,7.3,-7.3,7.3h-.4c-4,0,-7.3,-3.3,-7.3,-7.3v-.3c0,-4.1,3.3,-7.4,7.3,-7.4Zm0,2.8h.4c2.5,0,4.5,2,4.5,4.6v.3c0,2.5,-2,4.5,-4.5,4.5h-.4c-2.5,0,-4.5,-2,-4.5,-4.5v-.3c0,-2.6,2,-4.6,4.5,-4.6Z" class="g1"/>
<path d="M53.1,381.6H63.5V383H53.1v-1.4Z" class="g1"/>
<path d="M53.1,381.6h1.4v82.8H53.1V381.6Z" class="g1"/>
<path d="M415.1,381.6h10.5V383H415.1v-1.4Z" class="g1"/>
<path d="M424.2,381.6h1.4v82.8h-1.4V381.6Z" class="g1"/>
<path d="M53.1,479.4H63.5v1.4H53.1v-1.4Z" class="g1"/>
<path d="M53.1,398h1.4v82.8H53.1V398Z" class="g1"/>
<path d="M415.1,479.4h10.5v1.4H415.1v-1.4Z" class="g1"/>
<path d="M424.2,398h1.4v82.8h-1.4V398Z" class="g1"/>
<path d="M62.1,397.5h6v1.4h-6v-1.4Z" class="g1"/>
<path d="M62.1,447.1h6v1.4h-6v-1.4Z" class="g1"/>
<path d="M62.1,466.6h6V468h-6v-1.4Z" class="g1"/>
<path d="M25.8,497.2h1.4V719.6H25.8V497.2Z" class="g1"/>
<path fill-rule="evenodd" d="M26.5,495.1h.4c3.6,0,6.6,3,6.6,6.6v.4c0,3.6,-3,6.6,-6.6,6.6h-.4c-3.6,0,-6.6,-3,-6.6,-6.6v-.4c0,-3.6,3,-6.6,6.6,-6.6Z" class="g0"/>
<path fill-rule="evenodd" d="M26.5,494.4h.4c4,0,7.3,3.3,7.3,7.3v.4c0,4,-3.3,7.3,-7.3,7.3h-.4c-4,0,-7.3,-3.3,-7.3,-7.3v-.4c0,-4,3.3,-7.3,7.3,-7.3Zm0,2.8h.4c2.5,0,4.5,2,4.5,4.5v.4c0,2.5,-2,4.5,-4.5,4.5h-.4c-2.5,0,-4.5,-2,-4.5,-4.5v-.4c0,-2.5,2,-4.5,4.5,-4.5Z" class="g1"/>
<path d="M53.1,559H63.5v1.4H53.1V559Z" class="g1"/>
<path d="M53.1,559h1.4V677.7H53.1V559Z" class="g1"/>
<path d="M415.1,559h10.5v1.4H415.1V559Z" class="g1"/>
<path d="M424.2,559h1.4V677.7h-1.4V559Z" class="g1"/>
<path d="M53.1,701.8H63.5v1.4H53.1v-1.4Z" class="g1"/>
<path d="M53.1,584.5h1.4V703.2H53.1V584.5Z" class="g1"/>
<path d="M415.1,701.8h10.5v1.4H415.1v-1.4Z" class="g1"/>
<path d="M424.2,584.5h1.4V703.2h-1.4V584.5Z" class="g1"/>
<path d="M62.1,574.8h6v1.5h-6v-1.5Z" class="g1"/>
<path d="M62.1,624.4h6v1.4h-6v-1.4Z" class="g1"/>
<path d="M62.1,659h6v1.4h-6V659Z" class="g1"/>
<path d="M25.8,719.6h1.4V912H25.8V719.6Z" class="g1"/>
<path fill-rule="evenodd" d="M26.5,717.5h.4c3.6,0,6.6,3,6.6,6.6v.4c0,3.6,-3,6.6,-6.6,6.6h-.4c-3.6,0,-6.6,-3,-6.6,-6.6v-.4c0,-3.6,3,-6.6,6.6,-6.6Z" class="g0"/>
<path fill-rule="evenodd" d="M26.5,716.8h.4c4,0,7.3,3.3,7.3,7.3v.4c0,4,-3.3,7.3,-7.3,7.3h-.4c-4,0,-7.3,-3.3,-7.3,-7.3v-.4c0,-4,3.3,-7.3,7.3,-7.3Zm0,2.8h.4c2.5,0,4.5,2,4.5,4.5v.4c0,2.5,-2,4.5,-4.5,4.5h-.4C24,729,22,727,22,724.5v-.4c0,-2.5,2,-4.5,4.5,-4.5Z" class="g1"/>
<path d="M53.1,781.4H63.5v1.4H53.1v-1.4Z" class="g1"/>
<path d="M53.1,781.4h1.4v94.9H53.1V781.4Z" class="g1"/>
<path d="M415.1,781.4h10.5v1.4H415.1v-1.4Z" class="g1"/>
<path d="M424.2,781.4h1.4v94.9h-1.4V781.4Z" class="g1"/>
<path d="M53.1,894.1H63.5v1.4H53.1v-1.4Z" class="g1"/>
<path d="M53.1,800.6h1.4v94.9H53.1V800.6Z" class="g1"/>
<path d="M415.1,894.1h10.5v1.4H415.1v-1.4Z" class="g1"/>
<path d="M424.2,800.6h1.4v94.9h-1.4V800.6Z" class="g1"/>
<path d="M62.1,797.2h6v1.5h-6v-1.5Z" class="g1"/>
<path d="M62.1,831.8h6v1.4h-6v-1.4Z" class="g1"/>
<path d="M62.1,866.4h6v1.4h-6v-1.4Z" class="g1"/>
<path fill-rule="evenodd" d="M26.5,909.9h.4c3.6,0,6.6,2.9,6.6,6.6v.3c0,3.7,-3,6.7,-6.6,6.7h-.4c-3.6,0,-6.6,-3,-6.6,-6.7v-.3c0,-3.7,3,-6.6,6.6,-6.6Z" class="g0"/>
<path fill-rule="evenodd" d="M26.5,909.2h.4c4,0,7.3,3.2,7.3,7.3v.3c0,4.1,-3.3,7.4,-7.3,7.4h-.4c-4,0,-7.3,-3.3,-7.3,-7.4v-.3c0,-4.1,3.3,-7.3,7.3,-7.3Zm0,2.8h.4c2.5,0,4.5,2,4.5,4.5v.3c0,2.5,-2,4.6,-4.5,4.6h-.4C24,921.4,22,919.3,22,916.8v-.3C22,914,24,912,26.5,912Z" class="g1"/>
<path d="M53.1,973.7H63.5v1.4H53.1v-1.4Z" class="g1"/>
<path d="M53.1,973.7h1.4v55.2H53.1V973.7Z" class="g1"/>
<path d="M415.1,973.7h10.5v1.4H415.1v-1.4Z" class="g1"/>
<path d="M424.2,973.7h1.4v55.2h-1.4V973.7Z" class="g1"/>
<path d="M53.1,1036.9H63.5v1.4H53.1v-1.4Z" class="g1"/>
<path d="M53.1,983.2h1.4v55.1H53.1V983.2Z" class="g1"/>
<path d="M415.1,1036.9h10.5v1.4H415.1v-1.4Z" class="g1"/>
<path d="M424.2,983.2h1.4v55.1h-1.4V983.2Z" class="g1"/>
<path d="M62.1,989.6h6V991h-6v-1.4Z" class="g1"/>
<path d="M62.1,1009.2h6v1.4h-6v-1.4Z" class="g1"/>
<path d="M0,1102.9H427v1.4H0v-1.4Z" class="g1"/>
<path d="M25.8,1119.3h1.4V1186H25.8v-66.7Z" class="g1"/>
<path fill-rule="evenodd" d="M26.5,1117.2h.4c3.6,0,6.6,3,6.6,6.7v.3c0,3.7,-3,6.7,-6.6,6.7h-.4c-3.6,0,-6.6,-3,-6.6,-6.7v-.3c0,-3.7,3,-6.7,6.6,-6.7Z" class="g0"/>
<path fill-rule="evenodd" d="M26.5,1116.5h.4c4,0,7.3,3.3,7.3,7.4v.3c0,4.1,-3.3,7.4,-7.3,7.4h-.4c-4,0,-7.3,-3.3,-7.3,-7.4v-.3c0,-4.1,3.3,-7.4,7.3,-7.4Zm0,2.8h.4c2.5,0,4.5,2.1,4.5,4.6v.3c0,2.5,-2,4.6,-4.5,4.6h-.4c-2.5,0,-4.5,-2.1,-4.5,-4.6v-.3c0,-2.5,2,-4.6,4.5,-4.6Z" class="g1"/>
<path fill-rule="evenodd" d="M26.5,1183.9h.4c3.6,0,6.6,3,6.6,6.7v.3c0,3.7,-3,6.6,-6.6,6.6h-.4c-3.6,0,-6.6,-2.9,-6.6,-6.6v-.3c0,-3.7,3,-6.7,6.6,-6.7Z" class="g0"/>
<path fill-rule="evenodd" d="M26.5,1183.2h.4c4,0,7.3,3.3,7.3,7.4v.3c0,4.1,-3.3,7.3,-7.3,7.3h-.4c-4,0,-7.3,-3.2,-7.3,-7.3v-.3c0,-4.1,3.3,-7.4,7.3,-7.4Zm0,2.8h.4c2.5,0,4.5,2.1,4.5,4.6v.3c0,2.5,-2,4.6,-4.5,4.6h-.4c-2.5,0,-4.5,-2.1,-4.5,-4.6v-.3c0,-2.5,2,-4.6,4.5,-4.6Z" class="g1"/>
<path d="M463.7,303.4H908.8v1.4H463.7v-1.4Z" class="g1"/>
<path fill-rule="evenodd" d="M495.4,319.8H597.7c2.5,0,4.6,2,4.6,4.6v15c0,2.5,-2.1,4.5,-4.6,4.5H495.4c-2.5,0,-4.5,-2,-4.5,-4.5v-15c0,-2.6,2,-4.6,4.5,-4.6Z" class="g1"/>
<path fill-rule="evenodd" d="M614.1,319.8h62.5c2.5,0,4.6,2,4.6,4.6v15c0,2.5,-2.1,4.5,-4.6,4.5H614.1c-2.5,0,-4.5,-2,-4.5,-4.5v-15c0,-2.6,2,-4.6,4.5,-4.6Z" class="g1"/>
<path fill-rule="evenodd" d="M693,319.8h54.2c2.5,0,4.5,2,4.5,4.6v15c0,2.5,-2,4.5,-4.5,4.5H693c-2.5,0,-4.5,-2,-4.5,-4.5v-15c0,-2.6,2,-4.6,4.5,-4.6Z" class="g1"/>
<path fill-rule="evenodd" d="M495.4,349.8H604c2.5,0,4.5,2.1,4.5,4.6v15c0,2.5,-2,4.5,-4.5,4.5H495.4c-2.5,0,-4.5,-2,-4.5,-4.5v-15c0,-2.5,2,-4.6,4.5,-4.6Z" class="g1"/>
<path fill-rule="evenodd" d="M620.4,349.8h56.9c2.5,0,4.6,2.1,4.6,4.6v15c0,2.5,-2.1,4.5,-4.6,4.5H620.4c-2.5,0,-4.5,-2,-4.5,-4.5v-15c0,-2.5,2,-4.6,4.5,-4.6Z" class="g1"/>
<path fill-rule="evenodd" d="M693.7,349.8h73.4c2.5,0,4.5,2.1,4.5,4.6v15c0,2.5,-2,4.5,-4.5,4.5H693.7c-2.5,0,-4.5,-2,-4.5,-4.5v-15c0,-2.5,2,-4.6,4.5,-4.6Z" class="g1"/>
<path fill-rule="evenodd" d="M495.4,379.9H608.5c2.6,0,4.6,2,4.6,4.5v15c0,2.5,-2,4.6,-4.6,4.6H495.4c-2.5,0,-4.5,-2.1,-4.5,-4.6v-15c0,-2.5,2,-4.5,4.5,-4.5Z" class="g1"/>
<path fill-rule="evenodd" d="M625,379.9h57.9c2.5,0,4.6,2,4.6,4.5v15c0,2.5,-2.1,4.6,-4.6,4.6H625c-2.5,0,-4.6,-2.1,-4.6,-4.6v-15c0,-2.5,2.1,-4.5,4.6,-4.5Z" class="g1"/>
<path fill-rule="evenodd" d="M699.3,379.9h30.4c2.5,0,4.5,2,4.5,4.5v15c0,2.5,-2,4.6,-4.5,4.6H699.3c-2.5,0,-4.5,-2.1,-4.5,-4.6v-15c0,-2.5,2,-4.5,4.5,-4.5Z" class="g1"/>
<path fill-rule="evenodd" d="M746.1,379.9h54.1c2.5,0,4.6,2,4.6,4.5v15c0,2.5,-2.1,4.6,-4.6,4.6H746.1c-2.5,0,-4.5,-2.1,-4.5,-4.6v-15c0,-2.5,2,-4.5,4.5,-4.5Z" class="g1"/>
<path d="M463.7,473.1H908.8v1.4H463.7v-1.4Z" class="g1"/>
<path d="M490.9,511h5.9v1.4h-5.9V511Z" class="g1"/>
<path d="M490.9,554.2h5.9v1.5h-5.9v-1.5Z" class="g1"/>
<path d="M490.9,593.7h5.9v1.4h-5.9v-1.4Z" class="g1"/>
<path d="M490.9,649.2h5.9v1.4h-5.9v-1.4Z" class="g1"/>
<path d="M490.9,716.9h5.9v1.5h-5.9v-1.5Z" class="g1"/>
<path d="M490.9,784.7h5.9v1.4h-5.9v-1.4Z" class="g1"/>
<path d="M490.9,840.2h5.9v1.4h-5.9v-1.4Z" class="g1"/>
<path d="M463.7,935H908.8v1.4H463.7V935Z" class="g1"/>
<path d="M630,1015.3h-.3c0,0,-.1,0,-.1,.1q-.1,0,-.1,.1v1.8c0,.2,-.1,.4,-.2,.6c-.2,.2,-.4,.2,-.7,.2H624c-.2,0,-.4,-.1,-.6,-.2c-.2,-.2,-.2,-.4,-.2,-.6v-4.6c0,-.3,0,-.5,.2,-.7c.2,-.1,.4,-.2,.6,-.2h3.9q.1,0,.2,-.1v-.4q0,-.1,0,-.2q-.1,0,-.2,0H624c-.4,0,-.8,.1,-1.1,.4c-.3,.3,-.4,.7,-.4,1.2v4.6c0,.4,.1,.8,.4,1.1c.3,.3,.7,.4,1.1,.4h4.6c.5,0,.8,-.1,1.2,-.4c.3,-.3,.4,-.7,.4,-1.1v-1.8q0,-.1,0,-.1q-.1,-.1,-.2,-.1Z" class="g2"/>
<path d="M632.2,1010.5c0,-.1,-.1,-.1,-.2,-.1h-2.9c0,0,-.1,0,-.2,.1c-.1,0,-.1,.1,-.1,.2c0,.1,0,.2,.1,.3l1,.9l-3.6,3.6q-.1,.1,-.1,.2c0,0,.1,.1,.1,.1l.6,.6q.1,.1,.1,.1q.1,0,.2,-.1l3.6,-3.6l.9,1c.1,.1,.2,.1,.3,.1c.1,0,.2,0,.2,-.1c.1,-.1,.2,-.2,.2,-.2v-2.9c-.1,-.1,-.1,-.2,-.2,-.2Z" class="g2"/>
<path d="M832.2,1044.3h-.3q-.1,0,-.2,0q0,.1,0,.2v1.7c0,.3,-.1,.5,-.3,.7c-.2,.1,-.4,.2,-.6,.2h-4.6c-.3,0,-.5,-.1,-.6,-.2c-.2,-.2,-.3,-.4,-.3,-.7v-4.6c0,-.2,.1,-.4,.3,-.6c.1,-.2,.4,-.2,.6,-.2h3.9c0,0,.1,-.1,.1,-.1c0,0,.1,-.1,.1,-.1v-.4c0,0,-.1,-.1,-.1,-.1c0,0,-.1,-.1,-.1,-.1h-3.9c-.4,0,-.8,.2,-1.1,.5c-.4,.3,-.5,.7,-.5,1.1v4.6c0,.5,.2,.8,.5,1.2c.3,.3,.6,.4,1.1,.4h4.6c.4,0,.8,-.1,1.1,-.4c.3,-.4,.5,-.7,.5,-1.2v-1.7q0,-.1,-.1,-.2c0,0,-.1,0,-.1,0Z" class="g2"/>
<path d="M834.4,1039.5c-.1,-.1,-.2,-.2,-.3,-.2h-2.8c-.1,0,-.2,.1,-.3,.2c0,0,-.1,.1,-.1,.2c0,.1,.1,.2,.1,.3l1,.9l-3.6,3.6q0,.1,0,.2c0,0,0,.1,0,.1l.7,.6q0,.1,.1,.1c0,0,.1,-.1,.1,-.1l3.6,-3.6l1,1c.1,.1,.2,.1,.2,.1c.1,0,.2,0,.3,-.1c.1,-.1,.1,-.2,.1,-.3v-2.8c0,-.1,0,-.2,-.1,-.2Z" class="g2"/>
<path d="M783.7,1073.3h-.4c0,0,-.1,0,-.1,0c0,0,-.1,.1,-.1,.2v1.7c0,.3,-.1,.5,-.2,.6c-.2,.2,-.4,.3,-.6,.3h-4.6c-.3,0,-.5,-.1,-.7,-.3c-.2,-.1,-.2,-.3,-.2,-.6v-4.6c0,-.2,.1,-.4,.2,-.6c.2,-.2,.4,-.3,.7,-.3h3.8q.1,0,.2,0c0,0,0,-.1,0,-.1v-.4c0,0,0,-.1,0,-.1c0,0,-.1,-.1,-.2,-.1h-3.8c-.5,0,-.8,.2,-1.2,.5c-.3,.3,-.4,.7,-.4,1.1v4.6c0,.4,.1,.8,.4,1.1c.4,.4,.7,.5,1.2,.5h4.6c.4,0,.8,-.2,1.1,-.5c.3,-.3,.5,-.6,.5,-1.1v-1.8c0,0,-.1,0,-.1,-.1c0,0,-.1,0,-.1,0Z" class="g2"/>
<path d="M785.9,1068.4c-.1,0,-.2,-.1,-.3,-.1h-2.8c-.1,0,-.2,.1,-.3,.1c-.1,.1,-.1,.2,-.1,.3c0,.1,.1,.2,.1,.2l1,1l-3.6,3.6c0,0,0,.1,0,.1q0,.1,0,.2l.6,.6q.1,0,.2,0c0,0,.1,0,.1,0l3.6,-3.6l1,1c0,0,.1,.1,.2,.1c.1,0,.2,-.1,.3,-.1c0,-.1,.1,-.2,.1,-.3v-2.8c0,-.1,-.1,-.2,-.1,-.3Z" class="g2"/>
<path d="M463.7,1145.9H908.8v1.4H463.7v-1.4Z" class="g1"/>
<path fill-rule="evenodd" d="M640,1160.9h.3c4.1,0,7.4,3.3,7.4,7.3v.4c0,4,-3.3,7.3,-7.4,7.3H640c-4.1,0,-7.4,-3.3,-7.4,-7.3v-.4c0,-4,3.3,-7.3,7.4,-7.3Z" class="g1"/>
<path fill-rule="evenodd" d="M668.6,1160.9h.4c4,0,7.3,3.3,7.3,7.3v.4c0,4,-3.3,7.3,-7.3,7.3h-.4c-4,0,-7.3,-3.3,-7.3,-7.3v-.4c0,-4,3.3,-7.3,7.3,-7.3Z" class="g1"/>
<path fill-rule="evenodd" d="M697.2,1160.9h.4c4,0,7.3,3.3,7.3,7.3v.4c0,4,-3.3,7.3,-7.3,7.3h-.4c-4,0,-7.3,-3.3,-7.3,-7.3v-.4c0,-4,3.3,-7.3,7.3,-7.3Z" class="g1"/>
<path fill-rule="evenodd" d="M725.9,1160.9h.3c4.1,0,7.3,3.3,7.3,7.3v.4c0,4,-3.2,7.3,-7.3,7.3h-.3c-4.1,0,-7.4,-3.3,-7.4,-7.3v-.4c0,-4,3.3,-7.3,7.4,-7.3Z" class="g1"/>
<path fill-rule="evenodd" d="M754.5,1160.9h.3c4.1,0,7.4,3.3,7.4,7.3v.4c0,4,-3.3,7.3,-7.4,7.3h-.3c-4.1,0,-7.3,-3.3,-7.3,-7.3v-.4c0,-4,3.2,-7.3,7.3,-7.3Z" class="g1"/>
<path fill-rule="evenodd" d="M640,1192.7h.3c4.1,0,7.4,3.2,7.4,7.3v.3c0,4.1,-3.3,7.4,-7.4,7.4H640c-4.1,0,-7.4,-3.3,-7.4,-7.4v-.3c0,-4.1,3.3,-7.3,7.4,-7.3Z" class="g1"/>
<path fill-rule="evenodd" d="M668.6,1192.7h.4c4,0,7.3,3.2,7.3,7.3v.3c0,4.1,-3.3,7.4,-7.3,7.4h-.4c-4,0,-7.3,-3.3,-7.3,-7.4v-.3c0,-4.1,3.3,-7.3,7.3,-7.3Z" class="g1"/>
<path fill-rule="evenodd" d="M697.2,1192.7h.4c4,0,7.3,3.2,7.3,7.3v.3c0,4.1,-3.3,7.4,-7.3,7.4h-.4c-4,0,-7.3,-3.3,-7.3,-7.4v-.3c0,-4.1,3.3,-7.3,7.3,-7.3Z" class="g1"/>
<path fill-rule="evenodd" d="M725.9,1192.7h.3c4.1,0,7.3,3.2,7.3,7.3v.3c0,4.1,-3.2,7.4,-7.3,7.4h-.3c-4.1,0,-7.4,-3.3,-7.4,-7.4v-.3c0,-4.1,3.3,-7.3,7.4,-7.3Z" class="g1"/>
<path fill-rule="evenodd" d="M754.5,1192.7h.3c4.1,0,7.4,3.2,7.4,7.3v.3c0,4.1,-3.3,7.4,-7.4,7.4h-.3c-4.1,0,-7.3,-3.3,-7.3,-7.4v-.3c0,-4.1,3.2,-7.3,7.3,-7.3Z" class="g1"/>
<path fill-rule="evenodd" d="M640,1224.4h.3c4.1,0,7.4,3.3,7.4,7.4v.3c0,4.1,-3.3,7.3,-7.4,7.3H640c-4.1,0,-7.4,-3.2,-7.4,-7.3v-.3c0,-4.1,3.3,-7.4,7.4,-7.4Z" class="g1"/>
<path fill-rule="evenodd" d="M668.6,1224.4h.4c4,0,7.3,3.3,7.3,7.4v.3c0,4.1,-3.3,7.3,-7.3,7.3h-.4c-4,0,-7.3,-3.2,-7.3,-7.3v-.3c0,-4.1,3.3,-7.4,7.3,-7.4Z" class="g1"/>
<path fill-rule="evenodd" d="M697.2,1224.4h.4c4,0,7.3,3.3,7.3,7.4v.3c0,4.1,-3.3,7.3,-7.3,7.3h-.4c-4,0,-7.3,-3.2,-7.3,-7.3v-.3c0,-4.1,3.3,-7.4,7.3,-7.4Z" class="g1"/>
<path fill-rule="evenodd" d="M725.9,1224.4h.3c4.1,0,7.3,3.3,7.3,7.4v.3c0,4.1,-3.2,7.3,-7.3,7.3h-.3c-4.1,0,-7.4,-3.2,-7.4,-7.3v-.3c0,-4.1,3.3,-7.4,7.4,-7.4Z" class="g1"/>
<path fill-rule="evenodd" d="M754.5,1224.4h.3c4.1,0,7.4,3.3,7.4,7.4v.3c0,4.1,-3.3,7.3,-7.4,7.3h-.3c-4.1,0,-7.3,-3.2,-7.3,-7.3v-.3c0,-4.1,3.2,-7.4,7.3,-7.4Zm0,1.4h.3c3.3,0,6,2.7,6,6v.3c0,3.3,-2.7,5.9,-6,5.9h-.3c-3.3,0,-5.9,-2.6,-5.9,-5.9v-.3c0,-3.3,2.6,-6,5.9,-6Z" class="g1"/>
<path clip-path="url(#c1)" fill-rule="evenodd" d="M114.2,33.5h.3c42,0,76.1,34.1,76.1,76.1v.4c0,42,-34.1,76.1,-76.1,76.1h-.3C72.2,186.1,38.1,152,38.1,110v-.4c0,-42,34.1,-76.1,76.1,-76.1Zm0,.7h.3c41.6,0,75.4,33.8,75.4,75.4v.4c0,41.6,-33.8,75.4,-75.4,75.4h-.3C72.5,185.4,38.8,151.6,38.8,110v-.4C38.8,68,72.5,34.2,114.2,34.2Z" class="g3"/>
<image clip-path="url(#c2)" preserveAspectRatio="none" x="39" y="34" width="151" height="151" xlink:href="img/1.jpg"/>
</svg>