<?xml version="1.0" encoding="UTF-8" standalone="no"?>
<!DOCTYPE svg PUBLIC "-//W3C//DTD SVG 1.1//EN"
"http://www.w3.org/Graphics/SVG/1.1/DTD/svg11.dtd">
<svg viewBox="0 0 909 1286" version="1.1" xmlns="http://www.w3.org/2000/svg" xmlns:xlink="http://www.w3.org/1999/xlink">
<defs>
<clipPath id="c0"><path d="M0,1283.8V0H908.8V1283.8Z"/></clipPath>
<style type="text/css"><![CDATA[
.g0{
fill: #FFFFFF;
}
.g1{
fill: #D3D3D3;
}
.g2{
fill: #479099;
}
]]></style>
</defs>
<g clip-path="url(#c0)">
<path d="M0,0H908.8V1283.8H0V0Z" class="g0"/>
</g>
<image preserveAspectRatio="none" x="39" y="34" width="140" height="141" xlink:href="img/1.png"/>
<path fill-rule="evenodd" d="M108.9,33.5c39.2,0,70.9,31.8,70.9,70.9c0,39.1,-31.7,70.9,-70.9,70.9c-39.1,0,-70.8,-31.8,-70.8,-70.9c0,-39.1,31.7,-70.9,70.8,-70.9Zm0,.7c38.8,0,70.2,31.5,70.2,70.2c0,38.7,-31.4,70.2,-70.2,70.2c-38.7,0,-70.1,-31.5,-70.1,-70.2c0,-38.7,31.4,-70.2,70.1,-70.2Z" class="g1"/>
<path d="M863.2,44.6l-1.8,-1.7l-5.3,4.6c.2,.2,.4,.3,.7,.3h12.9c.3,0,.5,-.1,.7,-.3l-5.3,-4.6l-1.9,1.7Z" class="g2"/>
<path d="M870.4,37.3c-.2,-.1,-.4,-.2,-.7,-.2H856.8c-.3,0,-.5,.1,-.7,.3l7.1,6.1l7.2,-6.2Z" class="g2"/>
<path d="M855.7,38v8.9l5.2,-4.4L855.7,38Z" class="g2"/>
<path d="M865.6,42.5l5.2,4.4V38l-5.2,4.5Z" class="g2"/>
<path d="M859.9,78.6h6.7c.4,0,.7,-.3,.7,-.7V64.2c0,-.4,-.3,-.7,-.7,-.7h-6.7c-.4,0,-.7,.3,-.7,.7V77.9c0,.4,.3,.7,.7,.7Zm3.4,-.5c-.6,0,-1,-.5,-1,-1c0,-.5,.4,-.9,1,-.9c.5,0,.9,.4,.9,.9c0,.5,-.4,1,-.9,1ZM860.1,65.3h6.3V75.7h-6.3V65.3Z" class="g2"/>
<path d="M867,93.7c-1,-1,-2.3,-1.5,-3.8,-1.5c-1.4,0,-2.7,.5,-3.7,1.5c-1.8,1.9,-2,5.3,-.5,7.4l4.2,6.1l4.3,-6.1C869,99,868.8,95.6,867,93.7Zm-3.7,6.5c-1.5,0,-2.7,-1.3,-2.7,-2.8c0,-1.5,1.2,-2.7,2.7,-2.7c1.5,0,2.8,1.2,2.8,2.7c0,1.5,-1.3,2.8,-2.8,2.8Z" class="g2"/>
<path d="M856.8,126.1h2.9v8.5h-2.9v-8.5Z" class="g2"/>
<path d="M858.3,122c-1,0,-1.6,.7,-1.6,1.5c0,.8,.6,1.5,1.5,1.5h.1c.9,0,1.5,-.7,1.5,-1.5c0,-.8,-.6,-1.5,-1.5,-1.5Z" class="g2"/>
<path d="M866.6,125.9c-1.5,0,-2.2,.8,-2.6,1.4v-1.2h-2.8c.1,.8,0,8.5,0,8.5H864v-4.7c0,-.3,.1,-.6,.1,-.7c.2,-.5,.7,-1.1,1.5,-1.1c1,0,1.4,.8,1.4,2v4.5h2.8v-4.9c0,-2.6,-1.4,-3.8,-3.2,-3.8Z" class="g2"/>
<path d="M867,150.6c-1.1,-.6,-2.4,-1,-3.8,-1c-1.3,0,-2.6,.4,-3.7,1c-1.2,.7,-2.1,1.6,-2.8,2.8c-.6,1.1,-1,2.4,-1,3.7c0,1.7,.5,3.1,1.5,4.4c.9,1.3,2.2,2.2,3.7,2.7c.1,.1,.3,.1,.4,0c0,-.1,.1,-.2,.1,-.3c0,0,0,-.2,0,-.5c0,-.4,0,-.7,0,-.9h-.2c-.2,.1,-.4,.1,-.6,.1c-.2,0,-.4,-.1,-.7,-.1c-.2,0,-.4,-.1,-.6,-.3c-.2,-.2,-.4,-.4,-.5,-.6v-.2c-.1,-.2,-.2,-.3,-.4,-.5c-.1,-.2,-.2,-.3,-.4,-.4h-.1q0,-.1,-.1,-.2c0,0,0,-.1,-.1,-.1c0,0,0,-.1,.1,-.1c0,0,.1,-.1,.3,-.1l.2,.1c.1,0,.3,.1,.4,.2c.2,.1,.4,.3,.5,.5c.2,.3,.4,.5,.6,.6c.2,.2,.4,.2,.6,.2c.2,0,.4,0,.6,0c.1,0,.3,-.1,.4,-.2c.1,-.4,.2,-.7,.5,-1c-.4,0,-.7,-.1,-1,-.1c-.3,-.1,-.6,-.2,-.9,-.4c-.4,-.2,-.6,-.4,-.8,-.7c-.2,-.2,-.4,-.6,-.5,-1c-.2,-.4,-.2,-.9,-.2,-1.5c0,-.8,.2,-1.4,.7,-2c-.2,-.6,-.2,-1.2,.1,-2c.2,0,.5,0,.8,.2c.4,.1,.7,.2,.9,.3c.1,.1,.3,.2,.4,.3c.6,-.2,1.2,-.3,1.8,-.3c.7,0,1.3,.1,1.9,.3l.4,-.2c.2,-.2,.5,-.3,.9,-.5c.3,-.1,.6,-.1,.8,-.1c.3,.8,.3,1.4,.1,2c.5,.6,.7,1.2,.7,2c0,.6,0,1.1,-.2,1.5c-.1,.4,-.3,.8,-.5,1c-.2,.3,-.5,.5,-.8,.7c-.3,.2,-.6,.3,-.9,.4c-.3,0,-.6,.1,-1,.1c.3,.3,.5,.8,.5,1.4v2.1c0,.1,.1,.2,.1,.3c.1,.1,.2,.1,.4,0c1.5,-.5,2.8,-1.4,3.7,-2.7c1,-1.3,1.5,-2.7,1.5,-4.4c0,-1.3,-.4,-2.6,-1.1,-3.7c-.6,-1.2,-1.5,-2.1,-2.7,-2.8Z" class="g2"/>
<path d="M0,250.7H436.1v1.4H0v-1.4Z" class="g2"/>
<path d="M25.8,268.8h1.4V490.5H25.8V268.8Z" class="g2"/>
<path fill-rule="evenodd" d="M26.5,266.7h.4c3.6,0,6.6,3,6.6,6.7v.3c0,3.7,-3,6.7,-6.6,6.7h-.4c-3.6,0,-6.6,-3,-6.6,-6.7v-.3c0,-3.7,3,-6.7,6.6,-6.7Z" class="g0"/>
<path fill-rule="evenodd" d="M26.5,266h.4c4,0,7.3,3.3,7.3,7.4v.3c0,4.1,-3.3,7.4,-7.3,7.4h-.4c-4,0,-7.3,-3.3,-7.3,-7.4v-.3c0,-4.1,3.3,-7.4,7.3,-7.4Zm0,2.8h.4c2.5,0,4.5,2.1,4.5,4.6v.3c0,2.5,-2,4.6,-4.5,4.6h-.4C24,278.3,22,276.2,22,273.7v-.3c0,-2.5,2,-4.6,4.5,-4.6Z" class="g2"/>
<path d="M62.1,350.7h6v1.4h-6v-1.4Z" class="g2"/>
<path d="M62.1,373.4h6v1.4h-6v-1.4Z" class="g2"/>
<path d="M62.1,429.6h6V431h-6v-1.4Z" class="g2"/>
<path d="M53.1,334.5H63.5v1.4H53.1v-1.4Z" class="g2"/>
<path d="M53.1,334.5h1.4V439.9H53.1V334.5Z" class="g2"/>
<path d="M424.2,334.5h10.5v1.4H424.2v-1.4Z" class="g2"/>
<path d="M433.3,334.5h1.4V439.9h-1.4V334.5Z" class="g2"/>
<path d="M53.1,460.5H63.5v1.4H53.1v-1.4Z" class="g2"/>
<path d="M53.1,356.5h1.4V461.9H53.1V356.5Z" class="g2"/>
<path d="M424.2,460.5h10.5v1.4H424.2v-1.4Z" class="g2"/>
<path d="M433.3,356.5h1.4V461.9h-1.4V356.5Z" class="g2"/>
<path d="M25.8,490.5h1.4V751.7H25.8V490.5Z" class="g2"/>
<path fill-rule="evenodd" d="M26.5,488.4h.4c3.6,0,6.6,3,6.6,6.7v.3c0,3.7,-3,6.7,-6.6,6.7h-.4c-3.6,0,-6.6,-3,-6.6,-6.7v-.3c0,-3.7,3,-6.7,6.6,-6.7Z" class="g0"/>
<path fill-rule="evenodd" d="M26.5,487.7h.4c4,0,7.3,3.3,7.3,7.4v.3c0,4.1,-3.3,7.4,-7.3,7.4h-.4c-4,0,-7.3,-3.3,-7.3,-7.4v-.3c0,-4.1,3.3,-7.4,7.3,-7.4Zm0,2.8h.4c2.5,0,4.5,2.1,4.5,4.6v.3c0,2.5,-2,4.6,-4.5,4.6h-.4C24,500,22,497.9,22,495.4v-.3c0,-2.5,2,-4.6,4.5,-4.6Z" class="g2"/>
<path d="M62.1,572.4h6v1.4h-6v-1.4Z" class="g2"/>
<path d="M62.1,611.9h6v1.4h-6v-1.4Z" class="g2"/>
<path d="M62.1,634.6h6V636h-6v-1.4Z" class="g2"/>
<path d="M62.1,690.8h6v1.4h-6v-1.4Z" class="g2"/>
<path d="M53.1,556.2H63.5v1.4H53.1v-1.4Z" class="g2"/>
<path d="M53.1,556.2h1.4V693H53.1V556.2Z" class="g2"/>
<path d="M424.2,556.2h10.5v1.4H424.2v-1.4Z" class="g2"/>
<path d="M433.3,556.2h1.4V693h-1.4V556.2Z" class="g2"/>
<path d="M53.1,721.7H63.5v1.4H53.1v-1.4Z" class="g2"/>
<path d="M53.1,586.2h1.4V723.1H53.1V586.2Z" class="g2"/>
<path d="M424.2,721.7h10.5v1.4H424.2v-1.4Z" class="g2"/>
<path d="M433.3,586.2h1.4V723.1h-1.4V586.2Z" class="g2"/>
<path fill-rule="evenodd" d="M26.5,749.6h.4c3.6,0,6.6,3,6.6,6.6v.4c0,3.6,-3,6.6,-6.6,6.6h-.4c-3.6,0,-6.6,-3,-6.6,-6.6v-.4c0,-3.6,3,-6.6,6.6,-6.6Z" class="g0"/>
<path fill-rule="evenodd" d="M26.5,748.9h.4c4,0,7.3,3.3,7.3,7.3v.4c0,4,-3.3,7.3,-7.3,7.3h-.4c-4,0,-7.3,-3.3,-7.3,-7.3v-.4c0,-4,3.3,-7.3,7.3,-7.3Zm0,2.8h.4c2.5,0,4.5,2,4.5,4.5v.4c0,2.5,-2,4.5,-4.5,4.5h-.4c-2.5,0,-4.5,-2,-4.5,-4.5v-.4c0,-2.5,2,-4.5,4.5,-4.5Z" class="g2"/>
<path d="M62.1,833.6h6V835h-6v-1.4Z" class="g2"/>
<path d="M62.1,856.3h6v1.4h-6v-1.4Z" class="g2"/>
<path d="M62.1,895.7h6v1.4h-6v-1.4Z" class="g2"/>
<path d="M62.1,951.9h6v1.4h-6v-1.4Z" class="g2"/>
<path d="M53.1,817.3H63.5v1.4H53.1v-1.4Z" class="g2"/>
<path d="M53.1,817.3h1.4V954.2H53.1V817.3Z" class="g2"/>
<path d="M424.2,817.3h10.5v1.4H424.2v-1.4Z" class="g2"/>
<path d="M433.3,817.3h1.4V954.2h-1.4V817.3Z" class="g2"/>
<path d="M53.1,982.8H63.5v1.4H53.1v-1.4Z" class="g2"/>
<path d="M53.1,847.4h1.4V984.2H53.1V847.4Z" class="g2"/>
<path d="M424.2,982.8h10.5v1.4H424.2v-1.4Z" class="g2"/>
<path d="M433.3,847.4h1.4V984.2h-1.4V847.4Z" class="g2"/>
<path d="M0,1047.4H436.1v1.4H0v-1.4Z" class="g2"/>
<path d="M25.8,1065.6h1.4v78.2H25.8v-78.2Z" class="g2"/>
<path fill-rule="evenodd" d="M26.5,1063.5h.4c3.6,0,6.6,3,6.6,6.6v.4c0,3.6,-3,6.6,-6.6,6.6h-.4c-3.6,0,-6.6,-3,-6.6,-6.6v-.4c0,-3.6,3,-6.6,6.6,-6.6Z" class="g0"/>
<path fill-rule="evenodd" d="M26.5,1062.8h.4c4,0,7.3,3.3,7.3,7.3v.4c0,4,-3.3,7.3,-7.3,7.3h-.4c-4,0,-7.3,-3.3,-7.3,-7.3v-.4c0,-4,3.3,-7.3,7.3,-7.3Zm0,2.8h.4c2.5,0,4.5,2,4.5,4.5v.4c0,2.5,-2,4.5,-4.5,4.5h-.4c-2.5,0,-4.5,-2,-4.5,-4.5v-.4c0,-2.5,2,-4.5,4.5,-4.5Z" class="g2"/>
<path fill-rule="evenodd" d="M26.5,1141.7h.4c3.6,0,6.6,3,6.6,6.6v.4c0,3.6,-3,6.6,-6.6,6.6h-.4c-3.6,0,-6.6,-3,-6.6,-6.6v-.4c0,-3.6,3,-6.6,6.6,-6.6Z" class="g0"/>
<path fill-rule="evenodd" d="M26.5,1141h.4c4,0,7.3,3.3,7.3,7.3v.4c0,4,-3.3,7.3,-7.3,7.3h-.4c-4,0,-7.3,-3.3,-7.3,-7.3v-.4c0,-4,3.3,-7.3,7.3,-7.3Zm0,2.8h.4c2.5,0,4.5,2,4.5,4.5v.4c0,2.5,-2,4.5,-4.5,4.5h-.4c-2.5,0,-4.5,-2,-4.5,-4.5v-.4c0,-2.5,2,-4.5,4.5,-4.5Z" class="g2"/>
<path d="M472.7,250.7H908.8v1.4H472.7v-1.4Z" class="g2"/>
<path fill-rule="evenodd" d="M504.5,267.1H613.8c2.5,0,4.5,2,4.5,4.5v16.8c0,2.5,-2,4.5,-4.5,4.5H504.5c-2.5,0,-4.5,-2,-4.5,-4.5V271.6c0,-2.5,2,-4.5,4.5,-4.5Z" class="g2"/>
<path fill-rule="evenodd" d="M630.2,267.1H750.3c2.5,0,4.5,2,4.5,4.5v16.8c0,2.5,-2,4.5,-4.5,4.5H630.2c-2.5,0,-4.5,-2,-4.5,-4.5V271.6c0,-2.5,2,-4.5,4.5,-4.5Z" class="g2"/>
<path fill-rule="evenodd" d="M766.7,267.1H825c2.5,0,4.6,2,4.6,4.5v16.8c0,2.5,-2.1,4.5,-4.6,4.5H766.7c-2.5,0,-4.5,-2,-4.5,-4.5V271.6c0,-2.5,2,-4.5,4.5,-4.5Z" class="g2"/>
<path fill-rule="evenodd" d="M504.5,303.4h64.2c2.6,0,4.6,2,4.6,4.5v16.8c0,2.5,-2,4.5,-4.6,4.5H504.5c-2.5,0,-4.5,-2,-4.5,-4.5V307.9c0,-2.5,2,-4.5,4.5,-4.5Z" class="g2"/>
<path fill-rule="evenodd" d="M585.2,303.4h75c2.5,0,4.6,2,4.6,4.5v16.8c0,2.5,-2.1,4.5,-4.6,4.5h-75c-2.5,0,-4.6,-2,-4.6,-4.5V307.9c0,-2.5,2.1,-4.5,4.6,-4.5Z" class="g2"/>
<path fill-rule="evenodd" d="M676.6,303.4H806.9c2.5,0,4.5,2,4.5,4.5v16.8c0,2.5,-2,4.5,-4.5,4.5H676.6c-2.5,0,-4.5,-2,-4.5,-4.5V307.9c0,-2.5,2,-4.5,4.5,-4.5Z" class="g2"/>
<path fill-rule="evenodd" d="M504.5,339.7h59.7c2.5,0,4.5,2,4.5,4.6V361c0,2.5,-2,4.5,-4.5,4.5H504.5c-2.5,0,-4.5,-2,-4.5,-4.5V344.3c0,-2.6,2,-4.6,4.5,-4.6Z" class="g2"/>
<path fill-rule="evenodd" d="M580.6,339.7h55.9c2.5,0,4.5,2,4.5,4.6V361c0,2.5,-2,4.5,-4.5,4.5H580.6c-2.5,0,-4.5,-2,-4.5,-4.5V344.3c0,-2.6,2,-4.6,4.5,-4.6Z" class="g2"/>
<path fill-rule="evenodd" d="M652.9,339.7H774c2.5,0,4.6,2,4.6,4.6V361c0,2.5,-2.1,4.5,-4.6,4.5H652.9c-2.5,0,-4.5,-2,-4.5,-4.5V344.3c0,-2.6,2,-4.6,4.5,-4.6Z" class="g2"/>
<path fill-rule="evenodd" d="M504.5,376H620.4c2.5,0,4.6,2.1,4.6,4.6v16.7c0,2.5,-2.1,4.6,-4.6,4.6H504.5c-2.5,0,-4.5,-2.1,-4.5,-4.6V380.6c0,-2.5,2,-4.6,4.5,-4.6Z" class="g2"/>
<path d="M472.7,451.8H908.8v1.4H472.7v-1.4Z" class="g2"/>
<path d="M500,491.8h5.9v1.4H500v-1.4Z" class="g2"/>
<path d="M500,589.5h5.9v1.4H500v-1.4Z" class="g2"/>
<path d="M500,673.7h5.9v1.4H500v-1.4Z" class="g2"/>
<path d="M500,757.8h5.9v1.4H500v-1.4Z" class="g2"/>
<path d="M500,841.9h5.9v1.5H500v-1.5Z" class="g2"/>
<path d="M500,926.1h5.9v1.4H500v-1.4Z" class="g2"/>
<path d="M472.7,1012.9H908.8v1.3H472.7v-1.3Z" class="g2"/>
<path d="M472.7,1129.1H908.8v1.4H472.7v-1.4Z" class="g2"/>
<path fill-rule="evenodd" d="M649,1144.1h.4c4,0,7.3,3.3,7.3,7.4v.3c0,4.1,-3.3,7.3,-7.3,7.3H649c-4,0,-7.3,-3.2,-7.3,-7.3v-.3c0,-4.1,3.3,-7.4,7.3,-7.4Z" class="g2"/>
<path fill-rule="evenodd" d="M677.7,1144.1h.3c4.1,0,7.4,3.3,7.4,7.4v.3c0,4.1,-3.3,7.3,-7.4,7.3h-.3c-4.1,0,-7.4,-3.2,-7.4,-7.3v-.3c0,-4.1,3.3,-7.4,7.4,-7.4Z" class="g2"/>
<path fill-rule="evenodd" d="M706.3,1144.1h.4c4,0,7.3,3.3,7.3,7.4v.3c0,4.1,-3.3,7.3,-7.3,7.3h-.4c-4,0,-7.3,-3.2,-7.3,-7.3v-.3c0,-4.1,3.3,-7.4,7.3,-7.4Z" class="g2"/>
<path fill-rule="evenodd" d="M734.9,1144.1h.4c4,0,7.3,3.3,7.3,7.4v.3c0,4.1,-3.3,7.3,-7.3,7.3h-.4c-4,0,-7.3,-3.2,-7.3,-7.3v-.3c0,-4.1,3.3,-7.4,7.3,-7.4Z" class="g2"/>
<path fill-rule="evenodd" d="M763.6,1144.1h.3c4.1,0,7.3,3.3,7.3,7.4v.3c0,4.1,-3.2,7.3,-7.3,7.3h-.3c-4.1,0,-7.4,-3.2,-7.4,-7.3v-.3c0,-4.1,3.3,-7.4,7.4,-7.4Z" class="g2"/>
<path fill-rule="evenodd" d="M649,1175.9h.4c4,0,7.3,3.3,7.3,7.3v.4c0,4,-3.3,7.3,-7.3,7.3H649c-4,0,-7.3,-3.3,-7.3,-7.3v-.4c0,-4,3.3,-7.3,7.3,-7.3Z" class="g2"/>
<path fill-rule="evenodd" d="M677.7,1175.9h.3c4.1,0,7.4,3.3,7.4,7.3v.4c0,4,-3.3,7.3,-7.4,7.3h-.3c-4.1,0,-7.4,-3.3,-7.4,-7.3v-.4c0,-4,3.3,-7.3,7.4,-7.3Z" class="g2"/>
<path fill-rule="evenodd" d="M706.3,1175.9h.4c4,0,7.3,3.3,7.3,7.3v.4c0,4,-3.3,7.3,-7.3,7.3h-.4c-4,0,-7.3,-3.3,-7.3,-7.3v-.4c0,-4,3.3,-7.3,7.3,-7.3Z" class="g2"/>
<path fill-rule="evenodd" d="M734.9,1175.9h.4c4,0,7.3,3.3,7.3,7.3v.4c0,4,-3.3,7.3,-7.3,7.3h-.4c-4,0,-7.3,-3.3,-7.3,-7.3v-.4c0,-4,3.3,-7.3,7.3,-7.3Z" class="g2"/>
<path fill-rule="evenodd" d="M763.6,1175.9h.3c4.1,0,7.3,3.3,7.3,7.3v.4c0,4,-3.2,7.3,-7.3,7.3h-.3c-4.1,0,-7.4,-3.3,-7.4,-7.3v-.4c0,-4,3.3,-7.3,7.4,-7.3Z" class="g2"/>
<path fill-rule="evenodd" d="M649,1207.7h.4c4,0,7.3,3.3,7.3,7.3v.4c0,4,-3.3,7.3,-7.3,7.3H649c-4,0,-7.3,-3.3,-7.3,-7.3v-.4c0,-4,3.3,-7.3,7.3,-7.3Z" class="g2"/>
<path fill-rule="evenodd" d="M677.7,1207.7h.3c4.1,0,7.4,3.3,7.4,7.3v.4c0,4,-3.3,7.3,-7.4,7.3h-.3c-4.1,0,-7.4,-3.3,-7.4,-7.3v-.4c0,-4,3.3,-7.3,7.4,-7.3Z" class="g2"/>
<path fill-rule="evenodd" d="M706.3,1207.7h.4c4,0,7.3,3.3,7.3,7.3v.4c0,4,-3.3,7.3,-7.3,7.3h-.4c-4,0,-7.3,-3.3,-7.3,-7.3v-.4c0,-4,3.3,-7.3,7.3,-7.3Z" class="g2"/>
<path fill-rule="evenodd" d="M734.9,1207.7h.4c4,0,7.3,3.3,7.3,7.3v.4c0,4,-3.3,7.3,-7.3,7.3h-.4c-4,0,-7.3,-3.3,-7.3,-7.3v-.4c0,-4,3.3,-7.3,7.3,-7.3Z" class="g2"/>
<path fill-rule="evenodd" d="M763.6,1208.4h.3c3.7,0,6.7,2.9,6.7,6.6v.4c0,3.6,-3,6.6,-6.7,6.6h-.3c-3.7,0,-6.7,-3,-6.7,-6.6v-.4c0,-3.7,3,-6.6,6.7,-6.6Z" class="g0"/>
<path fill-rule="evenodd" d="M763.6,1207.7h.3c4.1,0,7.3,3.3,7.3,7.3v.4c0,4,-3.2,7.3,-7.3,7.3h-.3c-4.1,0,-7.4,-3.3,-7.4,-7.3v-.4c0,-4,3.3,-7.3,7.4,-7.3Zm0,1.4h.3c3.3,0,6,2.6,6,5.9v.4c0,3.2,-2.7,5.9,-6,5.9h-.3c-3.3,0,-6,-2.7,-6,-5.9v-.4c0,-3.3,2.7,-5.9,6,-5.9Z" class="g2"/>
</svg>