<?xml version="1.0" encoding="UTF-8" standalone="no"?>
<!DOCTYPE svg PUBLIC "-//W3C//DTD SVG 1.1//EN"
"http://www.w3.org/Graphics/SVG/1.1/DTD/svg11.dtd">
<svg viewBox="0 0 909 1286" version="1.1" xmlns="http://www.w3.org/2000/svg" xmlns:xlink="http://www.w3.org/1999/xlink">
<defs>
<clipPath id="c0"><path d="M0,1283.8V0H908.8V1283.8Z"/></clipPath>
<clipPath id="c1"><path d="M112.8,182.3c-40.9,0,-74,-33.2,-74,-74.1c0,-40.8,33.1,-74,74,-74c40.8,0,74,33.2,74,74c0,40.9,-33.2,74.1,-74,74.1Z"/></clipPath>
<style type="text/css"><![CDATA[
.g0{
fill: #FFFFFF;
}
.g1{
fill: #D3D3D3;
}
.g2{
fill: #2CBFAA;
}
]]></style>
</defs>
<path clip-path="url(#c0)" d="M0,0H908.8V1283.8H0V0Z" class="g0"/>
<image clip-path="url(#c1)" preserveAspectRatio="none" x="39" y="34" width="148" height="148" xlink:href="img/1.jpg"/>
<path fill-rule="evenodd" d="M112.8,33.5c41.2,0,74.7,33.5,74.7,74.7c0,41.3,-33.5,74.7,-74.7,74.7c-41.3,0,-74.7,-33.4,-74.7,-74.7C38.1,67,71.5,33.5,112.8,33.5Zm0,.7c40.8,0,74,33.2,74,74c0,40.9,-33.2,74.1,-74,74.1c-40.9,0,-74,-33.2,-74,-74.1c0,-40.8,33.1,-74,74,-74Z" class="g1"/>
<path d="M863.2,46l-1.8,-1.7l-5.3,4.6c.2,.2,.4,.3,.7,.3h12.9c.3,0,.5,-.1,.7,-.3l-5.3,-4.6L863.2,46Z" class="g2"/>
<path d="M870.4,38.7c-.2,-.1,-.4,-.2,-.7,-.2H856.8c-.3,0,-.5,.1,-.7,.2l7.1,6.2l7.2,-6.2Z" class="g2"/>
<path d="M855.7,39.4v8.9l5.2,-4.4l-5.2,-4.5Z" class="g2"/>
<path d="M865.6,43.9l5.2,4.4V39.4l-5.2,4.5Z" class="g2"/>
<path d="M859.9,81.7h6.7c.4,0,.7,-.3,.7,-.7V67.4c0,-.4,-.3,-.7,-.7,-.7h-6.7c-.4,0,-.7,.3,-.7,.7V81c0,.4,.3,.7,.7,.7Zm3.4,-.5c-.6,0,-1,-.4,-1,-.9c0,-.6,.4,-1,1,-1c.5,0,.9,.4,.9,1c0,.5,-.4,.9,-.9,.9ZM860.1,68.4h6.3V78.8h-6.3V68.4Z" class="g2"/>
<path d="M867,98.6c-1,-1,-2.3,-1.5,-3.8,-1.5c-1.4,0,-2.7,.5,-3.7,1.5c-1.8,1.8,-2,5.3,-.5,7.4l4.2,6.1l4.3,-6.1c1.5,-2.1,1.3,-5.6,-.5,-7.4Zm-3.7,6.4c-1.5,0,-2.7,-1.2,-2.7,-2.7c0,-1.5,1.2,-2.8,2.7,-2.8c1.5,0,2.8,1.3,2.8,2.8c0,1.5,-1.3,2.7,-2.8,2.7Z" class="g2"/>
<path d="M856.8,132.7h2.9v8.5h-2.9v-8.5Z" class="g2"/>
<path d="M858.3,128.7c-1,0,-1.6,.6,-1.6,1.4c0,.8,.6,1.5,1.5,1.5h.1c.9,0,1.5,-.7,1.5,-1.5c0,-.8,-.6,-1.4,-1.5,-1.4Z" class="g2"/>
<path d="M866.6,132.5c-1.5,0,-2.2,.9,-2.6,1.4v.1v-1.3h-2.8c.1,.8,0,8.5,0,8.5H864v-4.7c0,-.3,.1,-.5,.1,-.7c.2,-.5,.7,-1,1.5,-1c1,0,1.4,.7,1.4,1.9v4.5h2.8v-4.8c0,-2.6,-1.4,-3.9,-3.2,-3.9Z" class="g2"/>
<path d="M867,159c-1.1,-.7,-2.4,-1,-3.8,-1c-1.3,0,-2.6,.3,-3.7,1c-1.2,.7,-2.1,1.6,-2.8,2.7c-.6,1.2,-1,2.4,-1,3.8c0,1.6,.5,3.1,1.5,4.4c.9,1.3,2.2,2.2,3.7,2.7c.1,.1,.3,0,.4,0c0,-.1,.1,-.2,.1,-.3c0,-.1,0,-.2,0,-.6c0,-.3,0,-.6,0,-.8h-.2c-.2,0,-.4,0,-.6,0c-.2,0,-.4,0,-.7,0c-.2,-.1,-.4,-.2,-.6,-.3c-.2,-.2,-.4,-.4,-.5,-.6v-.2c-.1,-.2,-.2,-.4,-.4,-.5c-.1,-.2,-.2,-.4,-.4,-.4l-.1,-.1l-.1,-.1c0,0,0,-.1,-.1,-.1q0,-.1,.1,-.1c0,-.1,.1,-.1,.3,-.1l.2,.1c.1,0,.3,.1,.4,.2c.2,.1,.4,.3,.5,.5c.2,.3,.4,.5,.6,.6c.2,.1,.4,.2,.6,.2c.2,0,.4,0,.6,0c.1,-.1,.3,-.1,.4,-.2c.1,-.4,.2,-.8,.5,-1c-.4,0,-.7,-.1,-1,-.2c-.3,0,-.6,-.2,-.9,-.3c-.4,-.2,-.6,-.4,-.8,-.7c-.2,-.3,-.4,-.6,-.5,-1c-.2,-.4,-.2,-.9,-.2,-1.5c0,-.8,.2,-1.4,.7,-2c-.2,-.6,-.2,-1.3,.1,-2c.2,-.1,.5,0,.8,.1c.4,.2,.7,.3,.9,.4c.1,.1,.3,.2,.4,.3c.6,-.2,1.2,-.3,1.8,-.3c.7,0,1.3,.1,1.9,.3l.4,-.3c.2,-.1,.5,-.3,.9,-.4c.3,-.1,.6,-.2,.8,-.1c.3,.7,.3,1.4,.1,2c.5,.6,.7,1.2,.7,2c0,.6,0,1.1,-.2,1.5c-.1,.4,-.3,.7,-.5,1c-.2,.3,-.5,.5,-.8,.7c-.3,.1,-.6,.3,-.9,.3c-.3,.1,-.6,.2,-1,.2c.3,.3,.5,.8,.5,1.4v2.1c0,.1,.1,.2,.1,.3c.1,0,.2,.1,.4,0c1.5,-.5,2.8,-1.4,3.7,-2.7c1,-1.3,1.5,-2.8,1.5,-4.4c0,-1.4,-.4,-2.6,-1.1,-3.8c-.6,-1.1,-1.5,-2,-2.7,-2.7Z" class="g2"/>
<path d="M0,257.3H436.1v1.4H0v-1.4Z" class="g2"/>
<path d="M25.8,275.5h1.4V488.1H25.8V275.5Z" class="g2"/>
<path fill-rule="evenodd" d="M26.5,273.4h.4c3.6,0,6.6,2.9,6.6,6.6v.4c0,3.6,-3,6.6,-6.6,6.6h-.4c-3.6,0,-6.6,-3,-6.6,-6.6V280c0,-3.7,3,-6.6,6.6,-6.6Z" class="g0"/>
<path fill-rule="evenodd" d="M26.5,272.7h.4c4,0,7.3,3.3,7.3,7.3v.4c0,4,-3.3,7.3,-7.3,7.3h-.4c-4,0,-7.3,-3.3,-7.3,-7.3V280c0,-4,3.3,-7.3,7.3,-7.3Zm0,2.8h.4c2.5,0,4.5,2,4.5,4.5v.4c0,2.5,-2,4.5,-4.5,4.5h-.4c-2.5,0,-4.5,-2,-4.5,-4.5V280c0,-2.5,2,-4.5,4.5,-4.5Z" class="g2"/>
<path d="M53.1,341.1H63.5v1.4H53.1v-1.4Z" class="g2"/>
<path d="M53.1,341.1h1.4V446.5H53.1V341.1Z" class="g2"/>
<path d="M424.2,341.1h10.5v1.4H424.2v-1.4Z" class="g2"/>
<path d="M433.3,341.1h1.4V446.5h-1.4V341.1Z" class="g2"/>
<path d="M53.1,467.1H63.5v1.4H53.1v-1.4Z" class="g2"/>
<path d="M53.1,363.1h1.4V468.5H53.1V363.1Z" class="g2"/>
<path d="M424.2,467.1h10.5v1.4H424.2v-1.4Z" class="g2"/>
<path d="M433.3,363.1h1.4V468.5h-1.4V363.1Z" class="g2"/>
<path d="M62.1,357.3h6v1.5h-6v-1.5Z" class="g2"/>
<path d="M62.1,380h6v1.5h-6V380Z" class="g2"/>
<path d="M62.1,436.2h6v1.5h-6v-1.5Z" class="g2"/>
<path d="M25.8,488.1h1.4V740.2H25.8V488.1Z" class="g2"/>
<path fill-rule="evenodd" d="M26.5,486h.4c3.6,0,6.6,3,6.6,6.6v.4c0,3.6,-3,6.6,-6.6,6.6h-.4c-3.6,0,-6.6,-3,-6.6,-6.6v-.4c0,-3.6,3,-6.6,6.6,-6.6Z" class="g0"/>
<path fill-rule="evenodd" d="M26.5,485.3h.4c4,0,7.3,3.3,7.3,7.3v.4c0,4,-3.3,7.3,-7.3,7.3h-.4c-4,0,-7.3,-3.3,-7.3,-7.3v-.4c0,-4,3.3,-7.3,7.3,-7.3Zm0,2.8h.4c2.5,0,4.5,2,4.5,4.5v.4c0,2.5,-2,4.5,-4.5,4.5h-.4C24,497.5,22,495.5,22,493v-.4c0,-2.5,2,-4.5,4.5,-4.5Z" class="g2"/>
<path d="M53.1,553.7H63.5v1.4H53.1v-1.4Z" class="g2"/>
<path d="M53.1,553.7h1.4V690.6H53.1V553.7Z" class="g2"/>
<path d="M424.2,553.7h10.5v1.4H424.2v-1.4Z" class="g2"/>
<path d="M433.3,553.7h1.4V690.6h-1.4V553.7Z" class="g2"/>
<path d="M53.1,719.2H63.5v1.4H53.1v-1.4Z" class="g2"/>
<path d="M53.1,583.8h1.4V720.6H53.1V583.8Z" class="g2"/>
<path d="M424.2,719.2h10.5v1.4H424.2v-1.4Z" class="g2"/>
<path d="M433.3,583.8h1.4V720.6h-1.4V583.8Z" class="g2"/>
<path d="M62.1,570h6v1.4h-6V570Z" class="g2"/>
<path d="M62.1,609.4h6v1.4h-6v-1.4Z" class="g2"/>
<path d="M62.1,632.1h6v1.4h-6v-1.4Z" class="g2"/>
<path d="M62.1,688.3h6v1.4h-6v-1.4Z" class="g2"/>
<path fill-rule="evenodd" d="M26.5,738.1h.4c3.6,0,6.6,3,6.6,6.6v.4c0,3.6,-3,6.6,-6.6,6.6h-.4c-3.6,0,-6.6,-3,-6.6,-6.6v-.4c0,-3.6,3,-6.6,6.6,-6.6Z" class="g0"/>
<path fill-rule="evenodd" d="M26.5,737.4h.4c4,0,7.3,3.3,7.3,7.3v.4c0,4,-3.3,7.3,-7.3,7.3h-.4c-4,0,-7.3,-3.3,-7.3,-7.3v-.4c0,-4,3.3,-7.3,7.3,-7.3Zm0,2.8h.4c2.5,0,4.5,2,4.5,4.5v.4c0,2.5,-2,4.5,-4.5,4.5h-.4c-2.5,0,-4.5,-2,-4.5,-4.5v-.4c0,-2.5,2,-4.5,4.5,-4.5Z" class="g2"/>
<path d="M53.1,805.8H63.5v1.4H53.1v-1.4Z" class="g2"/>
<path d="M53.1,805.8h1.4V942.7H53.1V805.8Z" class="g2"/>
<path d="M424.2,805.8h10.5v1.4H424.2v-1.4Z" class="g2"/>
<path d="M433.3,805.8h1.4V942.7h-1.4V805.8Z" class="g2"/>
<path d="M53.1,971.3H63.5v1.4H53.1v-1.4Z" class="g2"/>
<path d="M53.1,835.8h1.4V972.7H53.1V835.8Z" class="g2"/>
<path d="M424.2,971.3h10.5v1.4H424.2v-1.4Z" class="g2"/>
<path d="M433.3,835.8h1.4V972.7h-1.4V835.8Z" class="g2"/>
<path d="M62.1,822h6v1.5h-6V822Z" class="g2"/>
<path d="M62.1,844.7h6v1.5h-6v-1.5Z" class="g2"/>
<path d="M62.1,884.2h6v1.4h-6v-1.4Z" class="g2"/>
<path d="M62.1,940.4h6v1.4h-6v-1.4Z" class="g2"/>
<path d="M0,1032.8H436.1v1.4H0v-1.4Z" class="g2"/>
<path d="M25.8,1050.9h1.4v79.6H25.8v-79.6Z" class="g2"/>
<path fill-rule="evenodd" d="M26.5,1048.8h.4c3.6,0,6.6,3,6.6,6.6v.4c0,3.7,-3,6.6,-6.6,6.6h-.4c-3.6,0,-6.6,-2.9,-6.6,-6.6v-.4c0,-3.6,3,-6.6,6.6,-6.6Z" class="g0"/>
<path fill-rule="evenodd" d="M26.5,1048.1h.4c4,0,7.3,3.3,7.3,7.3v.4c0,4,-3.3,7.3,-7.3,7.3h-.4c-4,0,-7.3,-3.3,-7.3,-7.3v-.4c0,-4,3.3,-7.3,7.3,-7.3Zm0,2.8h.4c2.5,0,4.5,2,4.5,4.5v.4c0,2.5,-2,4.5,-4.5,4.5h-.4c-2.5,0,-4.5,-2,-4.5,-4.5v-.4c0,-2.5,2,-4.5,4.5,-4.5Z" class="g2"/>
<path fill-rule="evenodd" d="M26.5,1128.4h.4c3.6,0,6.6,3,6.6,6.7v.3c0,3.7,-3,6.6,-6.6,6.6h-.4c-3.6,0,-6.6,-2.9,-6.6,-6.6v-.3c0,-3.7,3,-6.7,6.6,-6.7Z" class="g0"/>
<path fill-rule="evenodd" d="M26.5,1127.7h.4c4,0,7.3,3.3,7.3,7.4v.3c0,4,-3.3,7.3,-7.3,7.3h-.4c-4,0,-7.3,-3.3,-7.3,-7.3v-.3c0,-4.1,3.3,-7.4,7.3,-7.4Zm0,2.8h.4c2.5,0,4.5,2,4.5,4.6v.3c0,2.5,-2,4.5,-4.5,4.5h-.4c-2.5,0,-4.5,-2,-4.5,-4.5v-.3c0,-2.6,2,-4.6,4.5,-4.6Z" class="g2"/>
<path d="M472.7,257.3H908.8v1.4H472.7v-1.4Z" class="g2"/>
<path fill-rule="evenodd" d="M504.5,273.7H613.8c2.5,0,4.5,2.1,4.5,4.6V295c0,2.5,-2,4.6,-4.5,4.6H504.5c-2.5,0,-4.5,-2.1,-4.5,-4.6V278.3c0,-2.5,2,-4.6,4.5,-4.6Z" class="g2"/>
<path fill-rule="evenodd" d="M630.2,273.7H750.3c2.5,0,4.5,2.1,4.5,4.6V295c0,2.5,-2,4.6,-4.5,4.6H630.2c-2.5,0,-4.5,-2.1,-4.5,-4.6V278.3c0,-2.5,2,-4.6,4.5,-4.6Z" class="g2"/>
<path fill-rule="evenodd" d="M766.7,273.7H825c2.5,0,4.6,2.1,4.6,4.6V295c0,2.5,-2.1,4.6,-4.6,4.6H766.7c-2.5,0,-4.5,-2.1,-4.5,-4.6V278.3c0,-2.5,2,-4.6,4.5,-4.6Z" class="g2"/>
<path fill-rule="evenodd" d="M504.5,306.9h64.2c2.6,0,4.6,2,4.6,4.5v16.8c0,2.5,-2,4.5,-4.6,4.5H504.5c-2.5,0,-4.5,-2,-4.5,-4.5V311.4c0,-2.5,2,-4.5,4.5,-4.5Z" class="g2"/>
<path fill-rule="evenodd" d="M585.2,306.9h75c2.5,0,4.6,2,4.6,4.5v16.8c0,2.5,-2.1,4.5,-4.6,4.5h-75c-2.5,0,-4.6,-2,-4.6,-4.5V311.4c0,-2.5,2.1,-4.5,4.6,-4.5Z" class="g2"/>
<path fill-rule="evenodd" d="M676.6,306.9H806.9c2.5,0,4.5,2,4.5,4.5v16.8c0,2.5,-2,4.5,-4.5,4.5H676.6c-2.5,0,-4.5,-2,-4.5,-4.5V311.4c0,-2.5,2,-4.5,4.5,-4.5Z" class="g2"/>
<path fill-rule="evenodd" d="M504.5,340.1h59.7c2.5,0,4.5,2,4.5,4.5v16.8c0,2.5,-2,4.5,-4.5,4.5H504.5c-2.5,0,-4.5,-2,-4.5,-4.5V344.6c0,-2.5,2,-4.5,4.5,-4.5Z" class="g2"/>
<path fill-rule="evenodd" d="M580.6,340.1h55.9c2.5,0,4.5,2,4.5,4.5v16.8c0,2.5,-2,4.5,-4.5,4.5H580.6c-2.5,0,-4.5,-2,-4.5,-4.5V344.6c0,-2.5,2,-4.5,4.5,-4.5Z" class="g2"/>
<path fill-rule="evenodd" d="M652.9,340.1H774c2.5,0,4.6,2,4.6,4.5v16.8c0,2.5,-2.1,4.5,-4.6,4.5H652.9c-2.5,0,-4.5,-2,-4.5,-4.5V344.6c0,-2.5,2,-4.5,4.5,-4.5Z" class="g2"/>
<path fill-rule="evenodd" d="M504.5,373.2H620.4c2.5,0,4.6,2.1,4.6,4.6v16.7c0,2.5,-2.1,4.6,-4.6,4.6H504.5c-2.5,0,-4.5,-2.1,-4.5,-4.6V377.8c0,-2.5,2,-4.6,4.5,-4.6Z" class="g2"/>
<path d="M472.7,463.7H908.8v1.4H472.7v-1.4Z" class="g2"/>
<path d="M500,503.6h5.9v1.5H500v-1.5Z" class="g2"/>
<path d="M500,592.3h5.9v1.4H500v-1.4Z" class="g2"/>
<path d="M500,667.4h5.9v1.4H500v-1.4Z" class="g2"/>
<path d="M500,742.4h5.9v1.5H500v-1.5Z" class="g2"/>
<path d="M500,817.5h5.9v1.4H500v-1.4Z" class="g2"/>
<path d="M500,892.6h5.9V894H500v-1.4Z" class="g2"/>
<path d="M472.7,973.1H908.8v1.3H472.7v-1.3Z" class="g2"/>
<path d="M472.7,1143.1H908.8v1.4H472.7v-1.4Z" class="g2"/>
<path fill-rule="evenodd" d="M649,1158.1h.4c4,0,7.3,3.3,7.3,7.3v.4c0,4,-3.3,7.3,-7.3,7.3H649c-4,0,-7.3,-3.3,-7.3,-7.3v-.4c0,-4,3.3,-7.3,7.3,-7.3Z" class="g2"/>
<path fill-rule="evenodd" d="M677.7,1158.1h.3c4.1,0,7.4,3.3,7.4,7.3v.4c0,4,-3.3,7.3,-7.4,7.3h-.3c-4.1,0,-7.4,-3.3,-7.4,-7.3v-.4c0,-4,3.3,-7.3,7.4,-7.3Z" class="g2"/>
<path fill-rule="evenodd" d="M706.3,1158.1h.4c4,0,7.3,3.3,7.3,7.3v.4c0,4,-3.3,7.3,-7.3,7.3h-.4c-4,0,-7.3,-3.3,-7.3,-7.3v-.4c0,-4,3.3,-7.3,7.3,-7.3Z" class="g2"/>
<path fill-rule="evenodd" d="M734.9,1158.1h.4c4,0,7.3,3.3,7.3,7.3v.4c0,4,-3.3,7.3,-7.3,7.3h-.4c-4,0,-7.3,-3.3,-7.3,-7.3v-.4c0,-4,3.3,-7.3,7.3,-7.3Z" class="g2"/>
<path fill-rule="evenodd" d="M763.6,1158.1h.3c4.1,0,7.3,3.3,7.3,7.3v.4c0,4,-3.2,7.3,-7.3,7.3h-.3c-4.1,0,-7.4,-3.3,-7.4,-7.3v-.4c0,-4,3.3,-7.3,7.4,-7.3Z" class="g2"/>
<path fill-rule="evenodd" d="M649,1189.9h.4c4,0,7.3,3.3,7.3,7.3v.3c0,4.1,-3.3,7.4,-7.3,7.4H649c-4,0,-7.3,-3.3,-7.3,-7.4v-.3c0,-4,3.3,-7.3,7.3,-7.3Z" class="g2"/>
<path fill-rule="evenodd" d="M677.7,1189.9h.3c4.1,0,7.4,3.3,7.4,7.3v.3c0,4.1,-3.3,7.4,-7.4,7.4h-.3c-4.1,0,-7.4,-3.3,-7.4,-7.4v-.3c0,-4,3.3,-7.3,7.4,-7.3Z" class="g2"/>
<path fill-rule="evenodd" d="M706.3,1189.9h.4c4,0,7.3,3.3,7.3,7.3v.3c0,4.1,-3.3,7.4,-7.3,7.4h-.4c-4,0,-7.3,-3.3,-7.3,-7.4v-.3c0,-4,3.3,-7.3,7.3,-7.3Z" class="g2"/>
<path fill-rule="evenodd" d="M734.9,1189.9h.4c4,0,7.3,3.3,7.3,7.3v.3c0,4.1,-3.3,7.4,-7.3,7.4h-.4c-4,0,-7.3,-3.3,-7.3,-7.4v-.3c0,-4,3.3,-7.3,7.3,-7.3Z" class="g2"/>
<path fill-rule="evenodd" d="M763.6,1189.9h.3c4.1,0,7.3,3.3,7.3,7.3v.3c0,4.1,-3.2,7.4,-7.3,7.4h-.3c-4.1,0,-7.4,-3.3,-7.4,-7.4v-.3c0,-4,3.3,-7.3,7.4,-7.3Z" class="g2"/>
<path fill-rule="evenodd" d="M649,1221.6h.4c4,0,7.3,3.3,7.3,7.4v.3c0,4.1,-3.3,7.4,-7.3,7.4H649c-4,0,-7.3,-3.3,-7.3,-7.4v-.3c0,-4.1,3.3,-7.4,7.3,-7.4Z" class="g2"/>
<path fill-rule="evenodd" d="M677.7,1221.6h.3c4.1,0,7.4,3.3,7.4,7.4v.3c0,4.1,-3.3,7.4,-7.4,7.4h-.3c-4.1,0,-7.4,-3.3,-7.4,-7.4v-.3c0,-4.1,3.3,-7.4,7.4,-7.4Z" class="g2"/>
<path fill-rule="evenodd" d="M706.3,1221.6h.4c4,0,7.3,3.3,7.3,7.4v.3c0,4.1,-3.3,7.4,-7.3,7.4h-.4c-4,0,-7.3,-3.3,-7.3,-7.4v-.3c0,-4.1,3.3,-7.4,7.3,-7.4Z" class="g2"/>
<path fill-rule="evenodd" d="M734.9,1221.6h.4c4,0,7.3,3.3,7.3,7.4v.3c0,4.1,-3.3,7.4,-7.3,7.4h-.4c-4,0,-7.3,-3.3,-7.3,-7.4v-.3c0,-4.1,3.3,-7.4,7.3,-7.4Z" class="g2"/>
<path fill-rule="evenodd" d="M763.6,1222.3h.3c3.7,0,6.7,3,6.7,6.7v.3c0,3.7,-3,6.7,-6.7,6.7h-.3c-3.7,0,-6.7,-3,-6.7,-6.7v-.3c0,-3.7,3,-6.7,6.7,-6.7Z" class="g0"/>
<path fill-rule="evenodd" d="M763.6,1221.6h.3c4.1,0,7.3,3.3,7.3,7.4v.3c0,4.1,-3.2,7.4,-7.3,7.4h-.3c-4.1,0,-7.4,-3.3,-7.4,-7.4v-.3c0,-4.1,3.3,-7.4,7.4,-7.4Zm0,1.4h.3c3.3,0,6,2.7,6,6v.3c0,3.3,-2.7,6,-6,6h-.3c-3.3,0,-6,-2.7,-6,-6v-.3c0,-3.3,2.7,-6,6,-6Z" class="g2"/>
</svg>