<?xml version="1.0" encoding="UTF-8" standalone="no"?>
<!DOCTYPE svg PUBLIC "-//W3C//DTD SVG 1.1//EN"
"http://www.w3.org/Graphics/SVG/1.1/DTD/svg11.dtd">
<svg viewBox="0 0 909 1286" version="1.1" xmlns="http://www.w3.org/2000/svg" xmlns:xlink="http://www.w3.org/1999/xlink">
<defs>
<clipPath id="c0"><path d="M0,1283.8V0H908.8V1283.8Z"/></clipPath>
<clipPath id="c1"><path d="M112.8,182.3c-40.9,0,-74,-33.2,-74,-74.1c0,-40.8,33.1,-74,74,-74c40.8,0,74,33.2,74,74c0,40.9,-33.2,74.1,-74,74.1Z"/></clipPath>
<style type="text/css"><![CDATA[
.g0{
fill: #FFFFFF;
}
.g1{
fill: #D3D3D3;
}
.g2{
fill: #2CBFAA;
}
]]></style>
</defs>
<path clip-path="url(#c0)" d="M0,0H908.8V1283.8H0V0Z" class="g0"/>
<image clip-path="url(#c1)" preserveAspectRatio="none" x="39" y="34" width="148" height="148" xlink:href="img/1.jpg"/>
<path fill-rule="evenodd" d="M112.8,33.5c41.2,0,74.7,33.5,74.7,74.7c0,41.3,-33.5,74.7,-74.7,74.7c-41.3,0,-74.7,-33.4,-74.7,-74.7C38.1,67,71.5,33.5,112.8,33.5Zm0,.7c40.8,0,74,33.2,74,74c0,40.9,-33.2,74.1,-74,74.1c-40.9,0,-74,-33.2,-74,-74.1c0,-40.8,33.1,-74,74,-74Z" class="g1"/>
<path d="M863.2,46l-1.8,-1.7l-5.3,4.6c.2,.2,.4,.3,.7,.3h12.9c.3,0,.5,-.1,.7,-.3l-5.3,-4.6L863.2,46Z" class="g2"/>
<path d="M870.4,38.7c-.2,-.1,-.4,-.2,-.7,-.2H856.8c-.3,0,-.5,.1,-.7,.2l7.1,6.2l7.2,-6.2Z" class="g2"/>
<path d="M855.7,39.4v8.9l5.2,-4.4l-5.2,-4.5Z" class="g2"/>
<path d="M865.6,43.9l5.2,4.4V39.4l-5.2,4.5Z" class="g2"/>
<path d="M859.9,81.7h6.7c.4,0,.7,-.3,.7,-.7V67.4c0,-.4,-.3,-.7,-.7,-.7h-6.7c-.4,0,-.7,.3,-.7,.7V81c0,.4,.3,.7,.7,.7Zm3.4,-.5c-.6,0,-1,-.4,-1,-.9c0,-.6,.4,-1,1,-1c.5,0,.9,.4,.9,1c0,.5,-.4,.9,-.9,.9ZM860.1,68.4h6.3V78.8h-6.3V68.4Z" class="g2"/>
<path d="M867,98.6c-1,-1,-2.3,-1.5,-3.8,-1.5c-1.4,0,-2.7,.5,-3.7,1.5c-1.8,1.8,-2,5.3,-.5,7.4l4.2,6.1l4.3,-6.1c1.5,-2.1,1.3,-5.6,-.5,-7.4Zm-3.7,6.4c-1.5,0,-2.7,-1.2,-2.7,-2.7c0,-1.5,1.2,-2.8,2.7,-2.8c1.5,0,2.8,1.3,2.8,2.8c0,1.5,-1.3,2.7,-2.8,2.7Z" class="g2"/>
<path d="M856.8,132.7h2.9v8.5h-2.9v-8.5Z" class="g2"/>
<path d="M858.3,128.7c-1,0,-1.6,.6,-1.6,1.4c0,.8,.6,1.5,1.5,1.5h.1c.9,0,1.5,-.7,1.5,-1.5c0,-.8,-.6,-1.4,-1.5,-1.4Z" class="g2"/>
<path d="M866.6,132.5c-1.5,0,-2.2,.9,-2.6,1.4v.1v-1.3h-2.8c.1,.8,0,8.5,0,8.5H864v-4.7c0,-.3,.1,-.5,.1,-.7c.2,-.5,.7,-1,1.5,-1c1,0,1.4,.7,1.4,1.9v4.5h2.8v-4.8c0,-2.6,-1.4,-3.9,-3.2,-3.9Z" class="g2"/>
<path d="M867,159c-1.1,-.7,-2.4,-1,-3.8,-1c-1.3,0,-2.6,.3,-3.7,1c-1.2,.7,-2.1,1.6,-2.8,2.7c-.6,1.2,-1,2.4,-1,3.8c0,1.6,.5,3.1,1.5,4.4c.9,1.3,2.2,2.2,3.7,2.7c.1,.1,.3,0,.4,0c0,-.1,.1,-.2,.1,-.3c0,-.1,0,-.2,0,-.6c0,-.3,0,-.6,0,-.8h-.2c-.2,0,-.4,0,-.6,0c-.2,0,-.4,0,-.7,0c-.2,-.1,-.4,-.2,-.6,-.3c-.2,-.2,-.4,-.4,-.5,-.6v-.2c-.1,-.2,-.2,-.4,-.4,-.5c-.1,-.2,-.2,-.4,-.4,-.4l-.1,-.1l-.1,-.1c0,0,0,-.1,-.1,-.1q0,-.1,.1,-.1c0,-.1,.1,-.1,.3,-.1l.2,.1c.1,0,.3,.1,.4,.2c.2,.1,.4,.3,.5,.5c.2,.3,.4,.5,.6,.6c.2,.1,.4,.2,.6,.2c.2,0,.4,0,.6,0c.1,-.1,.3,-.1,.4,-.2c.1,-.4,.2,-.8,.5,-1c-.4,0,-.7,-.1,-1,-.2c-.3,0,-.6,-.2,-.9,-.3c-.4,-.2,-.6,-.4,-.8,-.7c-.2,-.3,-.4,-.6,-.5,-1c-.2,-.4,-.2,-.9,-.2,-1.5c0,-.8,.2,-1.4,.7,-2c-.2,-.6,-.2,-1.3,.1,-2c.2,-.1,.5,0,.8,.1c.4,.2,.7,.3,.9,.4c.1,.1,.3,.2,.4,.3c.6,-.2,1.2,-.3,1.8,-.3c.7,0,1.3,.1,1.9,.3l.4,-.3c.2,-.1,.5,-.3,.9,-.4c.3,-.1,.6,-.2,.8,-.1c.3,.7,.3,1.4,.1,2c.5,.6,.7,1.2,.7,2c0,.6,0,1.1,-.2,1.5c-.1,.4,-.3,.7,-.5,1c-.2,.3,-.5,.5,-.8,.7c-.3,.1,-.6,.3,-.9,.3c-.3,.1,-.6,.2,-1,.2c.3,.3,.5,.8,.5,1.4v2.1c0,.1,.1,.2,.1,.3c.1,0,.2,.1,.4,0c1.5,-.5,2.8,-1.4,3.7,-2.7c1,-1.3,1.5,-2.8,1.5,-4.4c0,-1.4,-.4,-2.6,-1.1,-3.8c-.6,-1.1,-1.5,-2,-2.7,-2.7Z" class="g2"/>
<path d="M0,257.3H436.1v1.4H0v-1.4Z" class="g2"/>
<path d="M25.8,275.5h1.4V537H25.8V275.5Z" class="g2"/>
<path fill-rule="evenodd" d="M26.5,273.4h.4c3.6,0,6.6,2.9,6.6,6.6v.4c0,3.6,-3,6.6,-6.6,6.6h-.4c-3.6,0,-6.6,-3,-6.6,-6.6V280c0,-3.7,3,-6.6,6.6,-6.6Z" class="g0"/>
<path fill-rule="evenodd" d="M26.5,272.7h.4c4,0,7.3,3.3,7.3,7.3v.4c0,4,-3.3,7.3,-7.3,7.3h-.4c-4,0,-7.3,-3.3,-7.3,-7.3V280c0,-4,3.3,-7.3,7.3,-7.3Zm0,2.8h.4c2.5,0,4.5,2,4.5,4.5v.4c0,2.5,-2,4.5,-4.5,4.5h-.4c-2.5,0,-4.5,-2,-4.5,-4.5V280c0,-2.5,2,-4.5,4.5,-4.5Z" class="g2"/>
<path d="M53.1,341.1H63.5v1.4H53.1v-1.4Z" class="g2"/>
<path d="M53.1,341.1h1.4V486.7H53.1V341.1Z" class="g2"/>
<path d="M424.2,341.1h10.5v1.4H424.2v-1.4Z" class="g2"/>
<path d="M433.3,341.1h1.4V486.7h-1.4V341.1Z" class="g2"/>
<path d="M53.1,517.4H63.5v1.4H53.1v-1.4Z" class="g2"/>
<path d="M53.1,373.2h1.4V518.8H53.1V373.2Z" class="g2"/>
<path d="M424.2,517.4h10.5v1.4H424.2v-1.4Z" class="g2"/>
<path d="M433.3,373.2h1.4V518.8h-1.4V373.2Z" class="g2"/>
<path d="M62.1,357.3h6v1.5h-6v-1.5Z" class="g2"/>
<path d="M62.1,413.5h6V415h-6v-1.5Z" class="g2"/>
<path d="M62.1,469.8h6v1.4h-6v-1.4Z" class="g2"/>
<path d="M25.8,537h1.4V770.9H25.8V537Z" class="g2"/>
<path fill-rule="evenodd" d="M26.5,534.9h.4c3.6,0,6.6,3,6.6,6.6v.4c0,3.6,-3,6.6,-6.6,6.6h-.4c-3.6,0,-6.6,-3,-6.6,-6.6v-.4c0,-3.6,3,-6.6,6.6,-6.6Z" class="g0"/>
<path fill-rule="evenodd" d="M26.5,534.2h.4c4,0,7.3,3.3,7.3,7.3v.4c0,4,-3.3,7.3,-7.3,7.3h-.4c-4,0,-7.3,-3.3,-7.3,-7.3v-.4c0,-4,3.3,-7.3,7.3,-7.3Zm0,2.8h.4c2.5,0,4.5,2,4.5,4.5v.4c0,2.5,-2,4.5,-4.5,4.5h-.4c-2.5,0,-4.5,-2,-4.5,-4.5v-.4C22,539,24,537,26.5,537Z" class="g2"/>
<path d="M53.1,602.6H63.5V604H53.1v-1.4Z" class="g2"/>
<path d="M53.1,602.6h1.4V726.2H53.1V602.6Z" class="g2"/>
<path d="M424.2,602.6h10.5V604H424.2v-1.4Z" class="g2"/>
<path d="M433.3,602.6h1.4V726.2h-1.4V602.6Z" class="g2"/>
<path d="M53.1,751.3H63.5v1.4H53.1v-1.4Z" class="g2"/>
<path d="M53.1,629.1h1.4V752.7H53.1V629.1Z" class="g2"/>
<path d="M424.2,751.3h10.5v1.4H424.2v-1.4Z" class="g2"/>
<path d="M433.3,629.1h1.4V752.7h-1.4V629.1Z" class="g2"/>
<path d="M62.1,618.8h6v1.5h-6v-1.5Z" class="g2"/>
<path d="M62.1,658.3h6v1.4h-6v-1.4Z" class="g2"/>
<path d="M62.1,681h6v1.4h-6V681Z" class="g2"/>
<path d="M62.1,720.4h6v1.5h-6v-1.5Z" class="g2"/>
<path fill-rule="evenodd" d="M26.5,768.8h.4c3.6,0,6.6,3,6.6,6.6v.4c0,3.6,-3,6.6,-6.6,6.6h-.4c-3.6,0,-6.6,-3,-6.6,-6.6v-.4c0,-3.6,3,-6.6,6.6,-6.6Z" class="g0"/>
<path fill-rule="evenodd" d="M26.5,768.1h.4c4,0,7.3,3.3,7.3,7.3v.4c0,4,-3.3,7.3,-7.3,7.3h-.4c-4,0,-7.3,-3.3,-7.3,-7.3v-.4c0,-4,3.3,-7.3,7.3,-7.3Zm0,2.8h.4c2.5,0,4.5,2,4.5,4.5v.4c0,2.5,-2,4.5,-4.5,4.5h-.4c-2.5,0,-4.5,-2,-4.5,-4.5v-.4c0,-2.5,2,-4.5,4.5,-4.5Z" class="g2"/>
<path d="M53.1,836.5H63.5v1.4H53.1v-1.4Z" class="g2"/>
<path d="M53.1,836.5h1.4V942H53.1V836.5Z" class="g2"/>
<path d="M424.2,836.5h10.5v1.4H424.2v-1.4Z" class="g2"/>
<path d="M433.3,836.5h1.4V942h-1.4V836.5Z" class="g2"/>
<path d="M53.1,962.6H63.5V964H53.1v-1.4Z" class="g2"/>
<path d="M53.1,858.5h1.4V964H53.1V858.5Z" class="g2"/>
<path d="M424.2,962.6h10.5V964H424.2v-1.4Z" class="g2"/>
<path d="M433.3,858.5h1.4V964h-1.4V858.5Z" class="g2"/>
<path d="M62.1,852.8h6v1.4h-6v-1.4Z" class="g2"/>
<path d="M62.1,875.5h6v1.4h-6v-1.4Z" class="g2"/>
<path d="M62.1,914.9h6v1.4h-6v-1.4Z" class="g2"/>
<path d="M0,1016.7H436.1v1.4H0v-1.4Z" class="g2"/>
<path d="M25.8,1034.8h1.4v78.3H25.8v-78.3Z" class="g2"/>
<path fill-rule="evenodd" d="M26.5,1032.8h.4c3.6,0,6.6,2.9,6.6,6.6v.3c0,3.7,-3,6.7,-6.6,6.7h-.4c-3.6,0,-6.6,-3,-6.6,-6.7v-.3c0,-3.7,3,-6.6,6.6,-6.6Z" class="g0"/>
<path fill-rule="evenodd" d="M26.5,1032.1h.4c4,0,7.3,3.2,7.3,7.3v.3c0,4.1,-3.3,7.4,-7.3,7.4h-.4c-4,0,-7.3,-3.3,-7.3,-7.4v-.3c0,-4.1,3.3,-7.3,7.3,-7.3Zm0,2.7h.4c2.5,0,4.5,2.1,4.5,4.6v.3c0,2.5,-2,4.6,-4.5,4.6h-.4c-2.5,0,-4.5,-2.1,-4.5,-4.6v-.3c0,-2.5,2,-4.6,4.5,-4.6Z" class="g2"/>
<path fill-rule="evenodd" d="M26.5,1111h.4c3.6,0,6.6,2.9,6.6,6.6v.3c0,3.7,-3,6.7,-6.6,6.7h-.4c-3.6,0,-6.6,-3,-6.6,-6.7v-.3c0,-3.7,3,-6.6,6.6,-6.6Z" class="g0"/>
<path fill-rule="evenodd" d="M26.5,1110.3h.4c4,0,7.3,3.2,7.3,7.3v.3c0,4.1,-3.3,7.4,-7.3,7.4h-.4c-4,0,-7.3,-3.3,-7.3,-7.4v-.3c0,-4.1,3.3,-7.3,7.3,-7.3Zm0,2.8h.4c2.5,0,4.5,2,4.5,4.5v.3c0,2.5,-2,4.6,-4.5,4.6h-.4c-2.5,0,-4.5,-2.1,-4.5,-4.6v-.3c0,-2.5,2,-4.5,4.5,-4.5Z" class="g2"/>
<path d="M472.7,257.3H908.8v1.4H472.7v-1.4Z" class="g2"/>
<path fill-rule="evenodd" d="M504.5,273.7H613.8c2.5,0,4.5,2.1,4.5,4.6V295c0,2.5,-2,4.6,-4.5,4.6H504.5c-2.5,0,-4.5,-2.1,-4.5,-4.6V278.3c0,-2.5,2,-4.6,4.5,-4.6Z" class="g2"/>
<path fill-rule="evenodd" d="M630.2,273.7h58.3c2.5,0,4.5,2.1,4.5,4.6V295c0,2.5,-2,4.6,-4.5,4.6H630.2c-2.5,0,-4.5,-2.1,-4.5,-4.6V278.3c0,-2.5,2,-4.6,4.5,-4.6Z" class="g2"/>
<path fill-rule="evenodd" d="M704.9,273.7h55.9c2.5,0,4.5,2.1,4.5,4.6V295c0,2.5,-2,4.6,-4.5,4.6H704.9c-2.5,0,-4.5,-2.1,-4.5,-4.6V278.3c0,-2.5,2,-4.6,4.5,-4.6Z" class="g2"/>
<path fill-rule="evenodd" d="M777.2,273.7h64.2c2.5,0,4.6,2.1,4.6,4.6V295c0,2.5,-2.1,4.6,-4.6,4.6H777.2c-2.5,0,-4.6,-2.1,-4.6,-4.6V278.3c0,-2.5,2.1,-4.6,4.6,-4.6Z" class="g2"/>
<path fill-rule="evenodd" d="M504.5,305.5H624.6c2.5,0,4.5,2,4.5,4.5v16.8c0,2.5,-2,4.5,-4.5,4.5H504.5c-2.5,0,-4.5,-2,-4.5,-4.5V310c0,-2.5,2,-4.5,4.5,-4.5Z" class="g2"/>
<path fill-rule="evenodd" d="M641,305.5h75.1c2.5,0,4.5,2,4.5,4.5v16.8c0,2.5,-2,4.5,-4.5,4.5H641c-2.5,0,-4.5,-2,-4.5,-4.5V310c0,-2.5,2,-4.5,4.5,-4.5Z" class="g2"/>
<path fill-rule="evenodd" d="M732.5,305.5h59.7c2.5,0,4.5,2,4.5,4.5v16.8c0,2.5,-2,4.5,-4.5,4.5H732.5c-2.5,0,-4.5,-2,-4.5,-4.5V310c0,-2.5,2,-4.5,4.5,-4.5Z" class="g2"/>
<path fill-rule="evenodd" d="M504.5,337.3H634.7c2.5,0,4.6,2,4.6,4.5v16.8c0,2.5,-2.1,4.5,-4.6,4.5H504.5c-2.5,0,-4.5,-2,-4.5,-4.5V341.8c0,-2.5,2,-4.5,4.5,-4.5Z" class="g2"/>
<path fill-rule="evenodd" d="M651.1,337.3H772.3c2.5,0,4.5,2,4.5,4.5v16.8c0,2.5,-2,4.5,-4.5,4.5H651.1c-2.5,0,-4.5,-2,-4.5,-4.5V341.8c0,-2.5,2,-4.5,4.5,-4.5Z" class="g2"/>
<path fill-rule="evenodd" d="M504.5,369H620.4c2.5,0,4.6,2.1,4.6,4.6v16.7c0,2.5,-2.1,4.6,-4.6,4.6H504.5c-2.5,0,-4.5,-2.1,-4.5,-4.6V373.6c0,-2.5,2,-4.6,4.5,-4.6Z" class="g2"/>
<path d="M472.7,452.1H908.8v1.4H472.7v-1.4Z" class="g2"/>
<path d="M500,492.1h5.9v1.4H500v-1.4Z" class="g2"/>
<path d="M500,537.5h5.9v1.4H500v-1.4Z" class="g2"/>
<path d="M500,597.5h5.9V599H500v-1.5Z" class="g2"/>
<path d="M500,684.8h5.9v1.5H500v-1.5Z" class="g2"/>
<path d="M500,758.5h5.9v1.4H500v-1.4Z" class="g2"/>
<path d="M500,832.2h5.9v1.4H500v-1.4Z" class="g2"/>
<path d="M500,905.8h5.9v1.5H500v-1.5Z" class="g2"/>
<path d="M472.7,992.6H908.8V994H472.7v-1.4Z" class="g2"/>
<path d="M472.7,1152.5H908.8v1.4H472.7v-1.4Z" class="g2"/>
<path fill-rule="evenodd" d="M649,1167.5h.4c4,0,7.3,3.3,7.3,7.4v.3c0,4.1,-3.3,7.3,-7.3,7.3H649c-4,0,-7.3,-3.2,-7.3,-7.3v-.3c0,-4.1,3.3,-7.4,7.3,-7.4Z" class="g2"/>
<path fill-rule="evenodd" d="M677.7,1167.5h.3c4.1,0,7.4,3.3,7.4,7.4v.3c0,4.1,-3.3,7.3,-7.4,7.3h-.3c-4.1,0,-7.4,-3.2,-7.4,-7.3v-.3c0,-4.1,3.3,-7.4,7.4,-7.4Z" class="g2"/>
<path fill-rule="evenodd" d="M706.3,1167.5h.4c4,0,7.3,3.3,7.3,7.4v.3c0,4.1,-3.3,7.3,-7.3,7.3h-.4c-4,0,-7.3,-3.2,-7.3,-7.3v-.3c0,-4.1,3.3,-7.4,7.3,-7.4Z" class="g2"/>
<path fill-rule="evenodd" d="M734.9,1167.5h.4c4,0,7.3,3.3,7.3,7.4v.3c0,4.1,-3.3,7.3,-7.3,7.3h-.4c-4,0,-7.3,-3.2,-7.3,-7.3v-.3c0,-4.1,3.3,-7.4,7.3,-7.4Z" class="g2"/>
<path fill-rule="evenodd" d="M763.6,1167.5h.3c4.1,0,7.3,3.3,7.3,7.4v.3c0,4.1,-3.2,7.3,-7.3,7.3h-.3c-4.1,0,-7.4,-3.2,-7.4,-7.3v-.3c0,-4.1,3.3,-7.4,7.4,-7.4Z" class="g2"/>
<path fill-rule="evenodd" d="M649,1199.3h.4c4,0,7.3,3.3,7.3,7.3v.4c0,4,-3.3,7.3,-7.3,7.3H649c-4,0,-7.3,-3.3,-7.3,-7.3v-.4c0,-4,3.3,-7.3,7.3,-7.3Z" class="g2"/>
<path fill-rule="evenodd" d="M677.7,1199.3h.3c4.1,0,7.4,3.3,7.4,7.3v.4c0,4,-3.3,7.3,-7.4,7.3h-.3c-4.1,0,-7.4,-3.3,-7.4,-7.3v-.4c0,-4,3.3,-7.3,7.4,-7.3Z" class="g2"/>
<path fill-rule="evenodd" d="M706.3,1199.3h.4c4,0,7.3,3.3,7.3,7.3v.4c0,4,-3.3,7.3,-7.3,7.3h-.4c-4,0,-7.3,-3.3,-7.3,-7.3v-.4c0,-4,3.3,-7.3,7.3,-7.3Z" class="g2"/>
<path fill-rule="evenodd" d="M734.9,1199.3h.4c4,0,7.3,3.3,7.3,7.3v.4c0,4,-3.3,7.3,-7.3,7.3h-.4c-4,0,-7.3,-3.3,-7.3,-7.3v-.4c0,-4,3.3,-7.3,7.3,-7.3Z" class="g2"/>
<path fill-rule="evenodd" d="M763.6,1199.3h.3c4.1,0,7.3,3.3,7.3,7.3v.4c0,4,-3.2,7.3,-7.3,7.3h-.3c-4.1,0,-7.4,-3.3,-7.4,-7.3v-.4c0,-4,3.3,-7.3,7.4,-7.3Z" class="g2"/>
<path fill-rule="evenodd" d="M649,1231.1h.4c4,0,7.3,3.2,7.3,7.3v.3c0,4.1,-3.3,7.4,-7.3,7.4H649c-4,0,-7.3,-3.3,-7.3,-7.4v-.3c0,-4.1,3.3,-7.3,7.3,-7.3Z" class="g2"/>
<path fill-rule="evenodd" d="M677.7,1231.1h.3c4.1,0,7.4,3.2,7.4,7.3v.3c0,4.1,-3.3,7.4,-7.4,7.4h-.3c-4.1,0,-7.4,-3.3,-7.4,-7.4v-.3c0,-4.1,3.3,-7.3,7.4,-7.3Z" class="g2"/>
<path fill-rule="evenodd" d="M706.3,1231.1h.4c4,0,7.3,3.2,7.3,7.3v.3c0,4.1,-3.3,7.4,-7.3,7.4h-.4c-4,0,-7.3,-3.3,-7.3,-7.4v-.3c0,-4.1,3.3,-7.3,7.3,-7.3Z" class="g2"/>
<path fill-rule="evenodd" d="M734.9,1231.1h.4c4,0,7.3,3.2,7.3,7.3v.3c0,4.1,-3.3,7.4,-7.3,7.4h-.4c-4,0,-7.3,-3.3,-7.3,-7.4v-.3c0,-4.1,3.3,-7.3,7.3,-7.3Z" class="g2"/>
<path fill-rule="evenodd" d="M763.6,1231.8h.3c3.7,0,6.7,2.9,6.7,6.6v.3c0,3.7,-3,6.7,-6.7,6.7h-.3c-3.7,0,-6.7,-3,-6.7,-6.7v-.3c0,-3.7,3,-6.6,6.7,-6.6Z" class="g0"/>
<path fill-rule="evenodd" d="M763.6,1231.1h.3c4.1,0,7.3,3.2,7.3,7.3v.3c0,4.1,-3.2,7.4,-7.3,7.4h-.3c-4.1,0,-7.4,-3.3,-7.4,-7.4v-.3c0,-4.1,3.3,-7.3,7.4,-7.3Zm0,1.4h.3c3.3,0,6,2.6,6,5.9v.3c0,3.3,-2.7,6,-6,6h-.3c-3.3,0,-6,-2.7,-6,-6v-.3c0,-3.3,2.7,-5.9,6,-5.9Z" class="g2"/>
</svg>